<?xml version="1.0" standalone="no"?>
<!DOCTYPE svg PUBLIC "-//W3C//DTD SVG 1.1//EN" "http://www.w3.org/Graphics/SVG/1.1/DTD/svg11.dtd" >
<svg xmlns="http://www.w3.org/2000/svg">
<metadata>Generated by IcoMoon</metadata>
<defs>
<font id="icomoon" horiz-adv-x="1024">
<font-face units-per-em="1024" ascent="960" descent="-64" />
<missing-glyph horiz-adv-x="1024" />
<glyph unicode="&#x20;" horiz-adv-x="512" d="" />
<glyph unicode="&#xe900;" glyph-name="add-event" d="M424 286.4c4.8 0 4.8 0 0 0 9.6 0 14.4 0 19.2 4.8l161.6 267.2c4.8 4.8 4.8 9.6 0 14.4s-9.6 9.6-14.4 9.6h-99.2l14.4 161.6c0 4.8-4.8 14.4-9.6 14.4s-14.4 0-19.2-4.8l-161.6-252.8c-4.8-4.8-4.8-9.6 0-14.4 0-4.8 4.8-9.6 14.4-9.6h104l-19.2-176c0-9.6 4.8-14.4 9.6-14.4zM352 510.4l118.4 176-9.6-118.4c0-4.8 0-9.6 4.8-9.6 4.8-4.8 4.8-4.8 9.6-4.8h91.2l-118.4-192 14.4 128c0 4.8 0 9.6-4.8 9.6-4.8 4.8-9.6 9.6-9.6 9.6h-96zM462.4 233.6c-161.6 0-291.2 128-291.2 291.2s128 286.4 291.2 286.4 289.6-129.6 289.6-291.2c0-43.2-9.6-86.4-28.8-123.2v0c14.4 0 28.8 0 43.2-4.8 19.2 38.4 24 81.6 24 128 0 180.8-147.2 328-328 328-185.6 4.8-334.4-142.4-334.4-323.2s147.2-328 328-328c24 0 48 4.8 72 9.6 0 4.8 0 4.8 0 9.6 0 9.6 0 24 4.8 33.6-19.2-11.2-46.4-16-70.4-16zM756.8 371.2v0c0 4.8 0 4.8 0 0-9.6 0-24 4.8-33.6 4.8v0c-4.8 0-9.6 0-9.6 0v0c-72-4.8-132.8-57.6-147.2-123.2v0-9.6c0-9.6-4.8-19.2-4.8-28.8v0 0 0-4.8c4.8-89.6 76.8-161.6 166.4-161.6s168 76.8 168 166.4c-4.8 76.8-62.4 142.4-139.2 156.8zM723.2 72c-76.8 0-137.6 62.4-137.6 137.6s62.4 137.6 137.6 137.6 137.6-62.4 137.6-137.6-60.8-137.6-137.6-137.6zM776 228.8h-38.4v38.4c0 9.6-9.6 19.2-19.2 19.2s-19.2-9.6-19.2-19.2v-38.4h-38.4c-9.6 0-19.2-9.6-19.2-19.2s9.6-19.2 19.2-19.2h38.4v-38.4c0-9.6 9.6-19.2 19.2-19.2s19.2 9.6 19.2 19.2v38.4h38.4c9.6 0 19.2 9.6 19.2 19.2s-9.6 19.2-19.2 19.2z" />
<glyph unicode="&#xe901;" glyph-name="add-gv" d="M462.4 232c-161.6 0-288 128-288 288s128 284.8 288 284.8 284.8-128 284.8-284.8c0-43.2-9.6-84.8-28.8-123.2v0c14.4 0 28.8 0 43.2-4.8 19.2 38.4 24 80 24 128-1.6 180.8-148.8 328-328 328s-326.4-147.2-326.4-326.4 147.2-326.4 326.4-326.4c24 0 48 4.8 70.4 9.6 0 4.8 0 4.8 0 9.6 0 9.6 0 24 4.8 33.6-19.2-11.2-46.4-16-70.4-16zM755.2 369.6v0c0 4.8 0 4.8 0 0-9.6 0-24 4.8-33.6 4.8v0c-4.8 0-9.6 0-9.6 0v0c-70.4-4.8-132.8-57.6-147.2-123.2v0-9.6c0-9.6-4.8-19.2-4.8-28.8v0 0 0-4.8c6.4-89.6 76.8-160 168-160s166.4 75.2 166.4 166.4c-6.4 75.2-62.4 140.8-139.2 155.2zM723.2 72c-75.2 0-137.6 60.8-137.6 137.6s60.8 137.6 137.6 137.6 137.6-60.8 137.6-137.6-62.4-137.6-137.6-137.6zM774.4 227.2h-38.4v38.4c0 9.6-9.6 19.2-19.2 19.2s-19.2-9.6-19.2-19.2v-38.4h-38.4c-9.6 0-19.2-9.6-19.2-19.2s9.6-19.2 19.2-19.2h38.4v-38.4c0-9.6 9.6-19.2 19.2-19.2s19.2 9.6 19.2 19.2v38.4h38.4c9.6 0 19.2 9.6 19.2 19.2 0 11.2-9.6 19.2-19.2 19.2zM595.2 398.4h33.6c14.4 24 24 43.2 28.8 52.8 9.6 24 14.4 48 14.4 75.2 0 9.6 0 24-4.8 33.6 0 9.6-4.8 24-9.6 33.6s-4.8 19.2-9.6 24c0 4.8-4.8 9.6-14.4 19.2h-28.8c9.6-14.4 14.4-28.8 14.4-38.4 9.6-24 9.6-48 9.6-75.2s-4.8-52.8-9.6-70.4c0-6.4-9.6-25.6-24-54.4zM315.2 640h-28.8c-9.6-9.6-9.6-19.2-14.4-19.2-4.8-4.8-4.8-14.4-9.6-24s-9.6-24-9.6-33.6c0-9.6-4.8-24-4.8-33.6 0-28.8 4.8-52.8 14.4-75.2 4.8-14.4 14.4-28.8 28.8-52.8h33.6c-14.4 24-19.2 43.2-24 52.8-9.6 19.2-9.6 43.2-9.6 70.4 0 28.8 4.8 52.8 9.6 75.2 4.8 11.2 9.6 25.6 14.4 40zM528 454.4c-9.6 0-14.4 0-19.2 4.8-4.8 0-4.8 4.8-9.6 14.4 0 9.6-4.8 14.4-9.6 24 0 4.8 0 19.2-4.8 38.4 4.8 4.8 9.6 9.6 9.6 14.4 4.8 4.8 4.8 4.8 9.6 9.6 4.8 0 9.6-4.8 14.4-4.8s9.6 0 14.4 0 19.2 4.8 24 9.6 9.6 14.4 9.6 24-4.8 14.4-9.6 19.2-9.6 9.6-19.2 9.6c-9.6 0-19.2-4.8-24-9.6s-14.4-14.4-24-28.8c0-4.8-4.8-4.8-4.8-9.6s-4.8-14.4-4.8-19.2c0 4.8 0 9.6-4.8 14.4 0 4.8-4.8 9.6-4.8 14.4s-3.2 12.8-8 12.8c0 4.8 0 4.8-4.8 9.6-4.8 0-9.6 4.8-14.4 4.8s-9.6 0-14.4 0c-4.8 0-14.4 0-24-4.8-9.6 0-19.2-4.8-28.8-9.6l-4.8-14.4c4.8 0 4.8 0 9.6 4.8 4.8 0 9.6 0 9.6 0 9.6 0 14.4 0 19.2-4.8s9.6-9.6 9.6-14.4 4.8-14.4 9.6-24c4.8-9.6 4.8-19.2 9.6-33.6-4.8-9.6-9.6-14.4-14.4-19.2l-4.8-4.8c-4.8 0-9.6 0-14.4 4.8-4.8 0-9.6 0-14.4 0-9.6 0-19.2-4.8-24-9.6-9.6-4.8-14.4-14.4-14.4-24s4.8-14.4 9.6-19.2c4.8-4.8 9.6-9.6 19.2-9.6s19.2 4.8 24 9.6c4.8 9.6 14.4 19.2 24 33.6 4.8 4.8 4.8 9.6 4.8 9.6 0 4.8 4.8 4.8 9.6 9.6 0-4.8 0-9.6 4.8-14.4 0-4.8 4.8-9.6 4.8-14.4s4.8-14.4 9.6-14.4c4.8-4.8 4.8-4.8 9.6-9.6s9.6-4.8 14.4-4.8 9.6 0 14.4 0 14.4 0 24 4.8c9.6 0 19.2 4.8 28.8 9.6l4.8 14.4c-4.8 0-4.8 0-9.6-4.8-11.2 1.6-16 1.6-20.8 1.6z" />
<glyph unicode="&#xe902;" glyph-name="add-resource" d="M691.2 414.4c-104 0-184-80-184-184s80-182.4 184-182.4 184 80 184 184-84.8 182.4-184 182.4zM691.2 81.6c-84.8 0-150.4 65.6-150.4 150.4s65.6 150.4 150.4 150.4 150.4-65.6 150.4-150.4-65.6-150.4-150.4-150.4zM747.2 254.4h-38.4v38.4c0 9.6-9.6 19.2-19.2 19.2s-19.2-9.6-19.2-19.2v-38.4h-38.4c-9.6 0-19.2-9.6-19.2-19.2s9.6-19.2 19.2-19.2h40v-38.4c0-9.6 9.6-19.2 19.2-19.2s19.2 9.6 19.2 19.2v33.6h38.4c9.6 0 19.2 9.6 19.2 19.2-1.6 16-11.2 24-20.8 24zM323.2 608c-9.6-4.8-14.4-9.6-14.4-19.2v-254.4c0-9.6 4.8-14.4 9.6-19.2 4.8 0 4.8 0 9.6 0s9.6 0 9.6 4.8l184 128c4.8 4.8 9.6 9.6 9.6 14.4s-4.8 14.4-9.6 14.4l-179.2 131.2c-4.8 4.8-14.4 4.8-19.2 0zM347.2 561.6l145.6-99.2-145.6-99.2v198.4zM492.8 123.2h-296v678.4h240l211.2-169.6v-169.6c0-14.4 9.6-24 24-24s24 9.6 24 24v184c0 4.8-4.8 14.4-9.6 19.2l-225.6 177.6c-4.8 4.8-9.6 4.8-14.4 4.8h-273.6c-14.4 0-22.4-9.6-22.4-24v-724.8c0-14.4 9.6-24 24-24h315.2c14.4 0 24 9.6 24 24s-11.2 24-20.8 24z" />
<glyph unicode="&#xe903;" glyph-name="add-sv" d="M518.4 388.8h28.8c11.2 22.4 22.4 40 28.8 51.2 6.4 22.4 11.2 44.8 11.2 67.2 0 11.2 0 22.4 0 28.8 0 11.2-6.4 22.4-11.2 33.6-6.4 6.4-6.4 11.2-11.2 17.6 0 6.4-6.4 11.2-11.2 17.6h-28.8c6.4-11.2 11.2-22.4 17.6-33.6 6.4-22.4 11.2-44.8 11.2-67.2s-6.4-44.8-11.2-62.4c-6.4-12.8-12.8-30.4-24-52.8zM264 603.2h-28.8c-6.4-6.4-11.2-11.2-11.2-17.6s-6.4-11.2-11.2-22.4c0-6.4-6.4-17.6-6.4-28.8s0-22.4 0-28.8c0-22.4 6.4-51.2 11.2-67.2 0-11.2 11.2-28.8 22.4-51.2h28.8c-11.2 22.4-17.6 40-22.4 51.2-6.4 17.6-6.4 40-6.4 62.4s6.4 44.8 11.2 67.2c1.6 12.8 8 24 12.8 35.2zM433.6 529.6c6.4 0 6.4 0 11.2-6.4 6.4 0 11.2 0 17.6 0s17.6 0 22.4 6.4c6.4 11.2 6.4 17.6 6.4 28.8 0 6.4 0 11.2-6.4 17.6-6.4 0-11.2 6.4-17.6 6.4s-17.6 0-22.4-6.4c-6.4-11.2-11.2-17.6-17.6-33.6 0 0-6.4-6.4-6.4-11.2 0-6.4-6.4-6.4-6.4-11.2 0 6.4 0 6.4 0 11.2 0 6.4 0 11.2-6.4 11.2-6.4 11.2-6.4 17.6-11.2 22.4s-6.4 6.4-11.2 6.4c-6.4 0-6.4 6.4-11.2 6.4-6.4 0-6.4 0-11.2 0s-11.2 0-22.4-6.4c-6.4 0-17.6-6.4-28.8-11.2v-6.4c0 0 6.4 0 11.2 6.4 6.4 0 6.4 0 11.2 0 6.4 0 11.2 0 17.6-6.4s6.4-6.4 6.4-11.2c0-6.4 6.4-11.2 6.4-22.4 0-6.4 6.4-17.6 11.2-33.6-6.4-6.4-11.2-11.2-11.2-11.2-6.4-6.4-6.4-11.2-11.2-11.2-6.4 0-6.4 0-11.2 6.4-6.4 6.4-11.2 0-17.6 0s-17.6 0-22.4-6.4c-6.4-6.4-11.2-11.2-11.2-22.4 0-6.4 0-11.2 6.4-17.6s11.2-6.4 17.6-6.4c6.4 0 17.6 0 22.4 6.4s11.2 17.6 22.4 28.8c0 6.4 6.4 6.4 6.4 11.2 0 0 6.4 6.4 6.4 11.2 0-6.4 0-6.4 6.4-11.2 0-6.4 0-11.2 6.4-11.2 0-6.4 6.4-11.2 6.4-17.6s6.4-6.4 11.2-11.2c6.4 0 6.4-6.4 11.2-6.4 6.4 0 11.2 0 11.2 0 6.4 0 11.2 0 22.4 6.4 6.4 0 17.6 6.4 28.8 11.2l6.4 17.6c0 0-6.4 0-11.2-6.4-6.4 0-6.4 0-11.2 0-6.4 0-11.2 0-17.6 6.4 0-6.4-6.4 0-6.4 6.4s-6.4 11.2-6.4 22.4c0 6.4-6.4 17.6-11.2 33.6 6.4 6.4 6.4 11.2 11.2 17.6 3.2-3.2 3.2-3.2 3.2-3.2zM489.6 248h40c11.2 0 22.4 11.2 22.4 22.4s-11.2 22.4-22.4 22.4h-366.4v379.2h571.2v-129.6c0-11.2 11.2-22.4 22.4-22.4s22.4 11.2 22.4 22.4v136c22.4 11.2 40 33.6 40 62.4v40c6.4 33.6-22.4 62.4-56 62.4h-662.4c-40 0-67.2-28.8-67.2-67.2v-40c0-33.6 28.8-62.4 67.2-62.4h17.6v-372.8h-17.6c-11.2 0-22.4-11.2-22.4-22.4s11.2-22.4 22.4-22.4h305.6l-124.8-160c-11.2-11.2-6.4-28.8 6.4-33.6 11.2-11.2 28.8-6.4 33.6 6.4l129.6 163.2 113.6-140.8 17.6-22.4c6.4-6.4 11.2-11.2 17.6-11.2s11.2 0 17.6 6.4c11.2 11.2 11.2 22.4 6.4 33.6l-134.4 150.4zM83.2 732.8v40c0 6.4 6.4 17.6 17.6 17.6h660.8c6.4 0 17.6-6.4 17.6-17.6v-40c0-6.4-6.4-17.6-17.6-17.6h-660.8c-11.2 6.4-17.6 12.8-17.6 17.6zM790.4 491.2c-113.6 0-203.2-89.6-203.2-203.2s89.6-203.2 203.2-203.2 203.2 89.6 203.2 203.2c0 112-91.2 203.2-203.2 203.2zM790.4 118.4c-96 0-169.6 73.6-169.6 169.6s73.6 169.6 169.6 169.6 168-73.6 168-169.6-78.4-169.6-168-169.6zM851.2 310.4h-44.8v44.8c0 11.2-11.2 22.4-22.4 22.4s-22.4-11.2-22.4-22.4v-44.8h-44.8c-11.2 0-22.4-11.2-22.4-22.4s11.2-22.4 22.4-22.4h44.8v-44.8c0-11.2 11.2-22.4 22.4-22.4s22.4 11.2 22.4 22.4v44.8h44.8c11.2 0 22.4 11.2 22.4 22.4s-11.2 22.4-22.4 22.4z" />
<glyph unicode="&#xe904;" glyph-name="add-timer" d="M582.4 721.6l19.2 33.6-38.4 24-19.2-33.6c-28.8 14.4-60.8 24-99.2 24v36.8h67.2v41.6h-169.6v-41.6h65.6v-41.6c-38.4 0-70.4-9.6-99.2-24l-19.2 38.4-38.4-24 19.2-33.6c-84.8-51.2-140.8-145.6-140.8-249.6 0-164.8 131.2-296 296-296 33.6 0 65.6 4.8 94.4 14.4 0 9.6 0 19.2 0 28.8 0 4.8 0 9.6 0 14.4-28.8-9.6-60.8-19.2-94.4-19.2-140.8 0-254.4 113.6-254.4 254.4s113.6 254.4 254.4 254.4 256-115.2 256-256c0-24-4.8-41.6-9.6-65.6 14.4 4.8 24 4.8 38.4 4.8h4.8c4.8 19.2 4.8 38.4 4.8 60.8 3.2 107.2-52.8 201.6-137.6 254.4zM710.4 387.2v0c-14.4 0-33.6 0-46.4-4.8 0 0 0-4.8-4.8-4.8l46.4 4.8c4.8 0 4.8 4.8 4.8 4.8zM540.8 246.4c0-9.6 0-19.2 0-24s0-14.4 0-19.2c4.8 0 4.8 4.8 9.6 4.8v46.4c0-8-4.8-8-9.6-8zM427.2 603.2h-41.6v-198.4h198.4v43.2h-155.2v155.2zM710.4 76.8c-75.2 0-142.4 65.6-140.8 140.8 0 80 60.8 140.8 140.8 140.8s140.8-60.8 140.8-140.8c0-80-60.8-140.8-140.8-140.8zM710.4 48c92.8 0 169.6 75.2 169.6 169.6s-75.2 169.6-169.6 169.6-169.6-75.2-169.6-169.6c0-94.4 75.2-169.6 169.6-169.6zM766.4 236.8h-38.4v38.4c0 9.6-9.6 19.2-19.2 19.2s-19.2-9.6-19.2-19.2v-38.4h-38.4c-9.6 0-19.2-9.6-19.2-19.2s9.6-19.2 19.2-19.2h38.4v-33.6c0-9.6 9.6-19.2 19.2-19.2s19.2 9.6 19.2 19.2v38.4h38.4c9.6 0 19.2 9.6 19.2 19.2s-9.6 14.4-19.2 14.4z" />
<glyph unicode="&#xe905;" glyph-name="align-bottom" d="M491.2 188.8c0 0 4.8 0 0 0 4.8 0 4.8-4.8 9.6-4.8 4.8-4.8 16-4.8 20.8 0 4.8 0 4.8 4.8 9.6 4.8v0l180.8 179.2c9.6 9.6 9.6 25.6 0 35.2s-25.6 9.6-35.2 0l-137.6-132.8v552c-1.6 16-11.2 25.6-27.2 25.6s-25.6-16-25.6-25.6v-552l-132.8 132.8c-9.6 9.6-25.6 9.6-35.2 0s-9.6-25.6 0-35.2l172.8-179.2zM868.8 99.2h-713.6c-16 0-25.6-9.6-25.6-25.6s9.6-25.6 25.6-25.6h715.2c16 0 25.6 9.6 25.6 25.6s-11.2 25.6-27.2 25.6z" />
<glyph unicode="&#xe906;" glyph-name="align-center" d="M137.6 723.2h750.4c14.4 0 25.6 9.6 25.6 25.6s-9.6 25.6-25.6 25.6h-750.4c-14.4 0-25.6-9.6-25.6-25.6s9.6-25.6 25.6-25.6zM286.4 572.8c-14.4 0-25.6-9.6-25.6-25.6s9.6-25.6 25.6-25.6h449.6c14.4 0 25.6 9.6 25.6 25.6s-9.6 25.6-25.6 25.6h-449.6zM737.6 172.8h-451.2c-14.4 0-25.6-9.6-25.6-25.6 0-14.4 9.6-25.6 25.6-25.6h449.6c14.4 0 25.6 9.6 25.6 25.6s-9.6 25.6-24 25.6zM886.4 372.8h-748.8c-14.4 0-25.6-9.6-25.6-25.6s9.6-25.6 25.6-25.6h750.4c14.4 0 25.6 9.6 25.6 25.6s-11.2 25.6-27.2 25.6z" />
<glyph unicode="&#xe907;" glyph-name="align-justify" d="M137.6 723.2h750.4c14.4 0 25.6 9.6 25.6 25.6s-9.6 25.6-25.6 25.6h-750.4c-14.4 0-25.6-9.6-25.6-25.6s9.6-25.6 25.6-25.6zM886.4 572.8h-748.8c-14.4 0-25.6-9.6-25.6-25.6s9.6-25.6 25.6-25.6h750.4c14.4 0 25.6 9.6 25.6 25.6s-11.2 25.6-27.2 25.6zM886.4 172.8h-748.8c-14.4 0-25.6-9.6-25.6-25.6 0-14.4 9.6-25.6 25.6-25.6h750.4c14.4 0 25.6 9.6 25.6 25.6s-11.2 25.6-27.2 25.6zM886.4 372.8h-748.8c-14.4 0-25.6-9.6-25.6-25.6s9.6-25.6 25.6-25.6h750.4c14.4 0 25.6 9.6 25.6 25.6s-11.2 25.6-27.2 25.6z" />
<glyph unicode="&#xe908;" glyph-name="align-left" d="M137.6 723.2h750.4c14.4 0 25.6 9.6 25.6 25.6s-9.6 25.6-25.6 25.6h-750.4c-14.4 0-25.6-9.6-25.6-25.6s9.6-25.6 25.6-25.6zM137.6 523.2h449.6c14.4 0 25.6 9.6 25.6 25.6s-9.6 25.6-25.6 25.6h-449.6c-14.4 0-25.6-9.6-25.6-25.6s9.6-25.6 25.6-25.6zM587.2 172.8h-449.6c-14.4 0-25.6-9.6-25.6-25.6 0-14.4 9.6-25.6 25.6-25.6h449.6c14.4 0 25.6 9.6 25.6 25.6s-11.2 25.6-25.6 25.6zM886.4 372.8h-748.8c-14.4 0-25.6-9.6-25.6-25.6s9.6-25.6 25.6-25.6h750.4c14.4 0 25.6 9.6 25.6 25.6s-11.2 25.6-27.2 25.6z" />
<glyph unicode="&#xe909;" glyph-name="align-middle" d="M524.8 376c-4.8 4.8-8 8-17.6 8-8 0-12.8 0-17.6-8l-139.2-139.2c-8-8-8-20.8 0-28.8s20.8-8 28.8 0l100.8 100.8v-240c0-12.8 8-20.8 20.8-20.8s20.8 8 20.8 20.8v240l100.8-100.8c8-8 20.8-8 28.8 0s8 20.8 0 28.8l-126.4 139.2zM491.2 520c4.8-4.8 8-8 17.6-8 8 0 12.8 0 17.6 8l139.2 139.2c8 8 8 20.8 0 28.8s-20.8 8-28.8 0l-100.8-100.8v240c0 12.8-8 20.8-20.8 20.8-17.6 0-25.6-8-25.6-20.8v-240l-102.4 100.8c-8 8-20.8 8-28.8 0s-8-20.8 0-28.8l132.8-139.2zM833.6 468.8h-632c-12.8 0-20.8-8-20.8-20.8s8-20.8 20.8-20.8h632c12.8 0 20.8 8 20.8 20.8s-9.6 20.8-20.8 20.8z" />
<glyph unicode="&#xe90a;" glyph-name="align-right" d="M137.6 723.2h750.4c14.4 0 25.6 9.6 25.6 25.6s-9.6 25.6-25.6 25.6h-750.4c-14.4 0-25.6-9.6-25.6-25.6s9.6-25.6 25.6-25.6zM886.4 572.8h-449.6c-14.4 0-25.6-9.6-25.6-25.6s9.6-25.6 25.6-25.6h449.6c14.4 0 25.6 9.6 25.6 25.6s-9.6 25.6-25.6 25.6zM886.4 172.8h-449.6c-14.4 0-25.6-9.6-25.6-25.6 0-14.4 9.6-25.6 25.6-25.6h449.6c14.4 0 25.6 9.6 25.6 25.6s-9.6 25.6-25.6 25.6zM886.4 372.8h-748.8c-14.4 0-25.6-9.6-25.6-25.6s9.6-25.6 25.6-25.6h750.4c14.4 0 25.6 9.6 25.6 25.6s-11.2 25.6-27.2 25.6z" />
<glyph unicode="&#xe90b;" glyph-name="align-top" d="M532.8 720c0 0-4.8 4.8-11.2 4.8s-4.8 0-11.2 0v0 0c-4.8 0-4.8 0-11.2 0-3.2 0-3.2-4.8-8-4.8l-182.4-182.4c-4.8-11.2-4.8-32 0-41.6 11.2-11.2 25.6-11.2 36.8 0l136 136v-556.8c0-16 11.2-25.6 25.6-25.6s25.6 11.2 25.6 25.6v560l136-136c11.2-11.2 25.6-11.2 36.8 0s11.2 25.6 0 36.8l-172.8 184zM876.8 848h-729.6c-16 0-25.6-11.2-25.6-25.6s11.2-25.6 25.6-25.6h728c16 0 25.6 11.2 25.6 25.6s-9.6 25.6-24 25.6z" />
<glyph unicode="&#xe90c;" glyph-name="angle" d="M886.4 182.4h-376c-4.8 81.6-36.8 156.8-91.2 219.2l318.4 318.4c9.6 9.6 9.6 27.2 0 36.8s-27.2 9.6-36.8 0l-580.8-582.4c-4.8-4.8-8-11.2-8-17.6 0-1.6 0-3.2 0-3.2 0-1.6 1.6-3.2 1.6-6.4 4.8-9.6 12.8-16 24-16h747.2c14.4 0 25.6 11.2 25.6 25.6 1.6 14.4-9.6 25.6-24 25.6zM201.6 182.4l182.4 182.4c43.2-51.2 70.4-115.2 75.2-182.4h-257.6z" />
<glyph unicode="&#xe90d;" glyph-name="application" d="M478.4 428.8h-347.2c-9.6 0-19.2 9.6-19.2 19.2v216c0 9.6 9.6 19.2 19.2 19.2h353.6c9.6 0 19.2-9.6 19.2-19.2v-216c-6.4-9.6-16-19.2-25.6-19.2zM145.6 467.2h320v179.2h-320v-179.2zM892.8 401.6h-352c-9.6 0-19.2 9.6-19.2 19.2v216c0 9.6 9.6 19.2 19.2 19.2h353.6c9.6 0 19.2-9.6 19.2-19.2v-216c-1.6-11.2-11.2-19.2-20.8-19.2zM558.4 433.6h315.2v184h-315.2v-184zM798.4 702.4v-28.8h33.6v46.4c0 9.6-4.8 14.4-14.4 14.4h-611.2c-14.4-4.8-19.2-9.6-19.2-19.2v-14.4h611.2zM220.8 414.4h-33.6v-145.6c0-9.6 4.8-14.4 14.4-14.4h286.4v-65.6h-75.2c-9.6 0-14.4-4.8-14.4-14.4s4.8-14.4 14.4-14.4h193.6c9.6 0 14.4 4.8 14.4 14.4s-4.8 14.4-14.4 14.4h-80v65.6h286.4c9.6 0 14.4 4.8 14.4 14.4v113.6h-611.2v33.6h4.8zM798.4 348.8v-65.6h-577.6v65.6h577.6zM233.6 579.2h-46.4c-9.6 0-19.2 9.6-19.2 19.2s9.6 19.2 19.2 19.2h46.4c9.6 0 19.2-9.6 19.2-19.2s-9.6-19.2-19.2-19.2zM422.4 579.2h-140.8c-9.6 0-19.2 9.6-19.2 19.2s9.6 19.2 19.2 19.2h140.8c9.6 0 19.2-9.6 19.2-19.2s-9.6-19.2-19.2-19.2zM422.4 499.2h-235.2c-9.6 0-19.2 9.6-19.2 19.2s9.6 19.2 19.2 19.2h235.2c9.6 0 19.2-9.6 19.2-19.2s-9.6-19.2-19.2-19.2zM836.8 467.2h-235.2c-9.6 0-19.2 9.6-19.2 19.2s9.6 19.2 19.2 19.2h235.2c9.6 0 19.2-9.6 19.2-19.2s-9.6-19.2-19.2-19.2zM836.8 552h-235.2c-9.6 0-19.2 9.6-19.2 19.2s9.6 19.2 19.2 19.2h235.2c9.6 0 19.2-9.6 19.2-19.2 0-14.4-9.6-19.2-19.2-19.2z" />
<glyph unicode="&#xe90e;" glyph-name="arrow-down" d="M483.2 742.4v-524.8l-184 182.4c-11.2 11.2-25.6 11.2-36.8 0s-11.2-25.6 0-36.8l225.6-230.4c0 0 4.8-4.8 11.2-4.8 4.8 0 4.8 0 11.2 0v0 0c4.8 0 4.8 0 11.2 0 0 0 4.8 0 4.8 4.8 0 0 0 0 4.8 0l230.4 230.4c11.2 11.2 11.2 25.6 0 36.8s-25.6 11.2-36.8 0l-184-182.4v524.8c0 16-11.2 25.6-25.6 25.6-16 0-32-11.2-32-25.6z" />
<glyph unicode="&#xe90f;" glyph-name="arrow-left" d="M806.4 475.2h-524.8l182.4 182.4c11.2 11.2 11.2 25.6 0 36.8s-25.6 11.2-36.8 0l-230.4-225.6c0 0-4.8-4.8-4.8-11.2s0-4.8 0-11.2v0 0c0-4.8 0-4.8 0-11.2 0 0 0-4.8 4.8-4.8 0 0 0 0 0-4.8l230.4-230.4c11.2-11.2 25.6-11.2 36.8 0s11.2 25.6 0 36.8l-182.4 184h524.8c16 0 25.6 11.2 25.6 25.6 0 11.2-11.2 33.6-25.6 33.6z" />
<glyph unicode="&#xe910;" glyph-name="arrow-right" d="M217.6 419.2h524.8l-182.4-184c-11.2-11.2-11.2-25.6 0-36.8s25.6-11.2 36.8 0l230.4 225.6c0 0 4.8 4.8 4.8 11.2s0 4.8 0 11.2v0 0c0 4.8 0 4.8 0 11.2 0 0 0 4.8-4.8 4.8 0 0 0 0 0 4.8l-232 230.4c-11.2 11.2-25.6 11.2-36.8 0s-11.2-25.6 0-36.8l184-184h-524.8c-16 0-25.6-11.2-25.6-25.6s11.2-32 25.6-32z" />
<glyph unicode="&#xe911;" glyph-name="arrow-up" d="M544 153.6v524.8l182.4-182.4c11.2-11.2 25.6-11.2 36.8 0s11.2 25.6 0 36.8l-225.6 230.4c0 0-4.8 4.8-11.2 4.8-4.8 0-4.8 0-11.2 0v0 0c-4.8 0-4.8 0-11.2 0 0 0-4.8 0-4.8-4.8 0 0 0 0-4.8 0l-233.6-232c-11.2-11.2-11.2-25.6 0-36.8s25.6-11.2 36.8 0l182.4 184v-524.8c0-16 11.2-25.6 25.6-25.6s38.4 11.2 38.4 25.6z" />
<glyph unicode="&#xe912;" glyph-name="as-collision" d="M553.6 627.2c0 121.6-97.6 220.8-220.8 220.8s-220.8-99.2-220.8-220.8 99.2-220.8 220.8-220.8 220.8 97.6 220.8 220.8zM150.4 627.2c0 99.2 80 184 184 184s184-80 184-184c0-99.2-80-184-184-184s-184 80-184 184zM691.2 489.6c-121.6 0-220.8-99.2-220.8-220.8s97.6-220.8 220.8-220.8 220.8 99.2 220.8 220.8-99.2 220.8-220.8 220.8zM691.2 86.4c-99.2 0-184 80-184 184s80 184 184 184 184-80 184-184-84.8-184-184-184zM681.6 603.2c4.8 0 9.6 0 14.4 4.8l56 56c9.6 9.6 9.6 19.2 0 28.8s-19.2 9.6-28.8 0l-56-56c-9.6-9.6-9.6-19.2 0-28.8 4.8-4.8 9.6-4.8 14.4-4.8zM681.6 552c0-9.6 9.6-19.2 19.2-19.2h80c9.6 0 19.2 9.6 19.2 19.2s-9.6 19.2-19.2 19.2h-80c-9.6-1.6-19.2-9.6-19.2-19.2zM606.4 627.2c9.6 0 19.2 9.6 19.2 19.2v75.2c0 9.6-9.6 19.2-19.2 19.2s-19.2-9.6-19.2-19.2v-80c0-9.6 9.6-14.4 19.2-14.4zM323.2 292.8l-56-56c-9.6-9.6-9.6-19.2 0-28.8 4.8-4.8 9.6-4.8 14.4-4.8s9.6 0 14.4 4.8l56 56c9.6 9.6 9.6 19.2 0 28.8-4.8 9.6-19.2 9.6-28.8 0zM412.8 278.4c-9.6 0-19.2-9.6-19.2-19.2v-80c0-9.6 9.6-19.2 19.2-19.2s19.2 9.6 19.2 19.2v80c0 14.4-9.6 19.2-19.2 19.2zM337.6 353.6c0 9.6-9.6 19.2-19.2 19.2h-80c-9.6 0-19.2-9.6-19.2-19.2s9.6-19.2 19.2-19.2h80c9.6 0 19.2 9.6 19.2 19.2z" />
<glyph unicode="&#xe913;" glyph-name="as-drag" d="M299.2 380.8v0c0 9.6 4.8 19.2 9.6 28.8s0 19.2-9.6 24c-9.6 4.8-19.2 0-24-9.6s-9.6-19.2-9.6-28.8c-9.6 4.8-19.2 9.6-32 9.6-65.6 0-116.8-51.2-116.8-116.8s51.2-116.8 116.8-116.8 116.8 51.2 116.8 116.8c0 36.8-19.2 73.6-51.2 92.8zM233.6 201.6c-46.4 0-84.8 36.8-84.8 84.8s36.8 84.8 84.8 84.8 84.8-36.8 84.8-84.8-38.4-84.8-84.8-84.8zM795.2 848c-65.6 0-116.8-51.2-116.8-116.8v0c-9.6 0-19.2-4.8-32-9.6-9.6-4.8-14.4-14.4-9.6-24 4.8-4.8 9.6-9.6 14.4-9.6h4.8c9.6 4.8 19.2 4.8 24 4.8 14.4-46.4 60.8-84.8 112-84.8 65.6 0 116.8 51.2 116.8 116.8s-48 123.2-113.6 123.2zM795.2 646.4c-46.4 0-84.8 36.8-84.8 84.8s38.4 84.8 84.8 84.8 84.8-36.8 84.8-84.8-38.4-84.8-84.8-84.8zM401.6 524.8c4.8 0 9.6 0 9.6 4.8 9.6 9.6 19.2 14.4 28.8 24 4.8 4.8 9.6 19.2 0 24-4.8 4.8-19.2 9.6-24 0-9.6-4.8-14.4-14.4-24-24-4.8-4.8-9.6-19.2 0-24 0 0 4.8-4.8 9.6-4.8zM340.8 507.2c-4.8-9.6-14.4-19.2-19.2-24-9.6-9.6-4.8-19.2 0-24s9.6-4.8 9.6-4.8 9.6 0 14.4 4.8c4.8 9.6 14.4 14.4 24 24 4.8 9.6 4.8 19.2 0 24-9.6 8-19.2 8-28.8 0zM561.6 646.4c4.8 0 4.8 0 9.6 4.8 9.6 4.8 19.2 9.6 28.8 14.4s14.4 14.4 9.6 24c-4.8 9.6-14.4 9.6-24 4.8s-19.2-9.6-28.8-19.2c-9.6-4.8-9.6-14.4-4.8-24 0-4.8 4.8-4.8 9.6-4.8zM481.6 590.4c4.8 0 9.6 0 9.6 4.8 9.6 4.8 19.2 14.4 28.8 19.2s9.6 14.4 4.8 24c-9.6 4.8-19.2 9.6-28.8 0-9.6-4.8-14.4-9.6-24-19.2-9.6-4.8-9.6-14.4-4.8-24 4.8-4.8 9.6-4.8 14.4-4.8zM715.2 412.8c-19.2 19.2-51.2 19.2-75.2 0-4.8-4.8-9.6-14.4-14.4-19.2-19.2 4.8-36.8 0-56-14.4-9.6-9.6-14.4-19.2-14.4-28.8-14.4 0-32-4.8-41.6-14.4-4.8-4.8-9.6-9.6-9.6-14.4l-27.2 30.4c-19.2 19.2-56 19.2-75.2 0-9.6-9.6-14.4-24-14.4-36.8s4.8-28.8 14.4-36.8l126.4-126.4h-28.8c-46.4 0-84.8-36.8-84.8-84.8 0-9.6 9.6-19.2 19.2-19.2h201.6c97.6 0 182.4 80 182.4 182.4 0 46.4-19.2 92.8-51.2 126.4l-51.2 56zM635.2 84.8h-182.4c4.8 19.2 24 32 46.4 32h65.6c4.8 0 14.4 4.8 14.4 9.6 4.8 4.8 0 14.4-4.8 19.2l-153.6 153.6c0 4.8-4.8 9.6-4.8 14.4s0 9.6 4.8 14.4c9.6 4.8 19.2 9.6 28.8 0l107.2-107.2c4.8-4.8 19.2-4.8 24 0s4.8 9.6 4.8 14.4c0 4.8 0 9.6-4.8 14.4l-41.6 41.6c-4.8 4.8-4.8 9.6-4.8 14.4s0 9.6 4.8 14.4c9.6 9.6 19.2 9.6 28.8 0l24-24c4.8-4.8 19.2-4.8 24 0s4.8 9.6 4.8 14.4c0 4.8 0 9.6-4.8 14.4l-19.2 19.2c-4.8 4.8-4.8 9.6-4.8 14.4s0 9.6 4.8 14.4c9.6 9.6 19.2 9.6 28.8 0l14.4-20.8c4.8-4.8 19.2-4.8 24 0s4.8 9.6 4.8 14.4c0 4.8 0 9.6-4.8 14.4-9.6 9.6-9.6 19.2 0 28.8s19.2 9.6 28.8 0l51.2-51.2c28.8-28.8 41.6-65.6 41.6-102.4 0-105.6-65.6-171.2-150.4-171.2z" />
<glyph unicode="&#xe914;" glyph-name="as-object-select" d="M865.6 851.2h-707.2c-22.4 0-46.4-19.2-46.4-46.4v-705.6c0-24 19.2-46.4 46.4-46.4h705.6c24 0 46.4 19.2 46.4 46.4v705.6c1.6 27.2-17.6 46.4-44.8 46.4zM846.4 164.8c0-24-19.2-46.4-46.4-46.4h-574.4c-24 0-46.4 19.2-46.4 46.4v572.8c0 24 19.2 46.4 46.4 46.4h574.4c24 0 46.4-19.2 46.4-46.4v-572.8zM609.6 403.2c-1.6 1.6-3.2 3.2-3.2 3.2l-46.4 20.8v97.6c0 22.4-16 38.4-38.4 38.4h-73.6c-22.4 0-38.4-16-38.4-38.4v-104c0-22.4 16-38.4 38.4-38.4h72l-3.2 8 16-46.4c0-1.6 1.6-3.2 1.6-3.2 1.6-1.6 3.2-1.6 3.2-1.6 1.6 0 3.2 0 3.2 0 1.6 1.6 3.2 1.6 4.8 3.2l19.2 17.6 19.2-20.8c1.6-1.6 3.2-3.2 4.8-3.2s4.8 1.6 4.8 1.6l6.4 6.4c1.6 1.6 1.6 1.6 1.6 3.2 1.6 1.6 1.6 3.2 1.6 3.2-1.6 0-1.6 1.6-1.6 1.6 6.4-1.6 6.4 0 6.4 0l-19.2 20.8 19.2 17.6c1.6 1.6 1.6 3.2 3.2 3.2 1.6 1.6 1.6 3.2 0 3.2 0 3.2-1.6 4.8-1.6 6.4zM601.6 398.4c0 0 0 0 0 0 0-1.6 0-1.6 0-3.2l-22.4-20.8c-1.6-1.6-1.6-3.2 0-4.8l22.4-22.4-6.4-6.4h-3.2l-20.8 24c-1.6 1.6-1.6 1.6-3.2 1.6s-3.2-1.6-3.2-1.6l-22.4-20.8c0 0 0 0-1.6 0 0 0 0 0-1.6 0 0 0 0 0-1.6 0l-28.8 91.2 6.4 4.8 86.4-41.6c0 1.6 0 1.6 0 0z" />
<glyph unicode="&#xe915;" glyph-name="as-ref-action" d="M801.6 550.4c4.8 0 9.6 0 19.2 0-32 97.6-112 177.6-211.2 211.2-9.6 46.4-51.2 84.8-102.4 84.8s-92.8-36.8-102.4-89.6c-97.6-32-172.8-107.2-206.4-206.4 4.8 0 9.6 0 19.2 0 4.8 0 9.6 0 14.4 0 24 84.8 92.8 145.6 172.8 177.6 0 4.8 0 9.6 0 14.4 0-56 46.4-102.4 102.4-102.4s102.4 46.4 102.4 102.4c0-4.8 0-9.6 0-14.4 84.8-28.8 145.6-97.6 177.6-177.6-51.2-9.6-89.6-51.2-89.6-102.4 0-56 46.4-102.4 102.4-102.4-4.8 0-9.6 0-14.4 0-28.8-84.8-97.6-150.4-177.6-177.6 0-4.8 0-9.6 0-14.4 0 56-46.4 102.4-102.4 102.4s-102.4-46.4-102.4-102.4c0 4.8 0 9.6 0 14.4-84.8 28.8-150.4 92.8-177.6 177.6-4.8 0-9.6 0-14.4 0s-9.6 0-19.2 0c32-97.6 112-177.6 211.2-211.2 9.6-51.2 51.2-89.6 102.4-89.6s92.8 36.8 102.4 89.6c97.6 32 177.6 112 211.2 211.2 51.2 9.6 89.6 51.2 89.6 102.4-4.8 56-51.2 102.4-107.2 102.4zM507.2 659.2c-46.4 0-80 36.8-80 80 0 46.4 32 84.8 80 84.8s80-36.8 80-80c-1.6-48-33.6-84.8-80-84.8zM507.2 73.6c-46.4 0-80 36.8-80 80 0 46.4 36.8 80 80 80 46.4 0 80-36.8 80-80-1.6-43.2-33.6-80-80-80zM801.6 368c-46.4 0-80 36.8-80 80s36.8 80 80 80c46.4 0 80-36.8 80-80s-38.4-80-80-80zM315.2 448c0 56-46.4 102.4-102.4 102.4s-104-46.4-104-102.4 46.4-102.4 102.4-102.4 104 46.4 104 102.4zM212.8 368c-41.6 0-80 32-80 80s36.8 80 80 80 84.8-32 84.8-80-38.4-80-84.8-80zM432 476.8h4.8c4.8 4.8 4.8 9.6 0 9.6-24 24-24 65.6 0 89.6 9.6 9.6 28.8 19.2 41.6 19.2 19.2 0 32-4.8 41.6-19.2 19.2-19.2 24-51.2 9.6-80 0-4.8 0-9.6 0-9.6 4.8 0 9.6 0 9.6 0 19.2 28.8 14.4 70.4-9.6 92.8-14.4 14.4-32 24-51.2 24-19.2 4.8-36.8-4.8-51.2-19.2-28.8-28.8-28.8-80 0-107.2h4.8zM456 555.2c4.8 4.8 14.4 9.6 24 9.6s19.2-4.8 28.8-9.6c9.6-9.6 14.4-19.2 9.6-32 0-4.8 0-9.6 4.8-9.6v0c4.8 0 4.8 0 4.8 4.8 4.8 14.4 0 32-14.4 41.6-4.8 14.4-19.2 19.2-32 19.2-14.4 0-24-4.8-32-14.4-9.6-14.4-14.4-28.8-14.4-46.4 0-4.8 4.8-4.8 9.6-4.8s4.8 4.8 4.8 9.6c-3.2 9.6 1.6 22.4 6.4 32zM534.4 476.8c0 0 0-4.8 0 0-4.8 3.2-12.8 3.2-17.6 3.2s-4.8 0-9.6 0v48c0 14.4-9.6 28.8-24 28.8-9.6 0-14.4 0-19.2-4.8-4.8-9.6-9.6-14.4-9.6-24v-65.6c-4.8 0-4.8 0-9.6 4.8-4.8 0-14.4 0-19.2-4.8-4.8-9.6-4.8-14.4-4.8-24v-56c0-51.2 41.6-92.8 92.8-92.8s92.8 41.6 92.8 92.8v56c0 14.4-9.6 24-24 24-4.8 0-4.8 0-9.6 0-4.8 9.6-9.6 19.2-24 19.2 0-1.6-9.6-1.6-14.4-4.8zM563.2 457.6v0-33.6c0-4.8 4.8-4.8 4.8-4.8 4.8 0 4.8 4.8 4.8 4.8v24c0 0 4.8 4.8 9.6 4.8s9.6-4.8 9.6-9.6v-56c0-41.6-36.8-80-80-80s-80 36.8-80 80v56c0 4.8 0 4.8 4.8 9.6 0 0 4.8 4.8 9.6 4.8v0c4.8 0 9.6-4.8 9.6-9.6v-56c0-4.8 4.8-4.8 4.8-4.8l4.8 4.8v136c0 4.8 0 4.8 4.8 9.6s9.6 4.8 14.4 4.8 9.6-4.8 9.6-14.4v-97.6c0-4.8 4.8-4.8 4.8-4.8 4.8 0 4.8 4.8 4.8 4.8v28.8c0 4.8 4.8 9.6 9.6 9.6s9.6-4.8 9.6-9.6v-28.8c0-4.8 4.8-4.8 4.8-4.8 4.8 0 4.8 4.8 4.8 4.8v28.8c0 4.8 0 4.8 4.8 9.6 0 0 4.8 4.8 9.6 4.8 11.2-6.4 16-11.2 16-16zM249.6 499.2h-75.2c-9.6 0-14.4-4.8-14.4-14.4v-75.2c0-9.6 9.6-14.4 14.4-14.4h75.2c9.6 0 14.4 9.6 14.4 14.4v75.2c0 9.6-4.8 14.4-14.4 14.4zM553.6 752l-60.8 32c-4.8 0-4.8 0-9.6 0s-4.8-4.8-4.8-9.6v-75.2c0-4.8 0-4.8 4.8-9.6h9.6l60.8 41.6c4.8 0 4.8 4.8 4.8 9.6 0 6.4 0 6.4-4.8 11.2zM483.2 209.6c-4.8 0-9.6-4.8-9.6-9.6v-92.8c0-4.8 4.8-9.6 9.6-9.6s9.6 4.8 9.6 9.6v92.8c0 4.8-4.8 9.6-9.6 9.6zM529.6 209.6c-4.8 0-9.6-4.8-9.6-9.6v-92.8c0-4.8 4.8-9.6 9.6-9.6s9.6 4.8 9.6 9.6v92.8c0 4.8-4.8 9.6-9.6 9.6zM806.4 508.8c-4.8 0-14.4-4.8-14.4-14.4v-60.8c0-4.8 4.8-14.4 14.4-14.4 4.8 0 14.4 4.8 14.4 14.4v65.6c-4.8 4.8-9.6 9.6-14.4 9.6zM806.4 411.2c-4.8 0-14.4-4.8-14.4-14.4 0-4.8 4.8-14.4 14.4-14.4 4.8 0 14.4 4.8 14.4 14.4-4.8 9.6-9.6 14.4-14.4 14.4z" />
<glyph unicode="&#xe916;" glyph-name="as-resource-select" d="M924.8 164.8c-4.8 4.8-4.8 9.6-4.8 9.6l-70.4 70.4 60.8 60.8c4.8 4.8 4.8 9.6 9.6 14.4s4.8 9.6 0 14.4c0 4.8-4.8 9.6-4.8 14.4-4.8 4.8-9.6 9.6-9.6 9.6l-160 65.6v254.4c0 46.4-38.4 80-84.8 80h-451.2c-46.4 0-84.8-38.4-84.8-84.8v-291.2c0-46.4 38.4-84.8 84.8-84.8h400l70.4-169.6c0-4.8 4.8-9.6 4.8-9.6 4.8-4.8 9.6-4.8 14.4-4.8s9.6 0 14.4 0c4.8 4.8 9.6 4.8 14.4 9.6l60.8 60.8 65.6-65.6c4.8-4.8 14.4-9.6 19.2-9.6 9.6 0 14.4 4.8 19.2 9.6l24 24c4.8 4.8 4.8 4.8 4.8 9.6 4.8 4.8 4.8 9.6 4.8 9.6v3.2zM209.6 339.2c-24 0-46.4 19.2-46.4 46.4v292.8c0 24 19.2 46.4 46.4 46.4h451.2c24 0 46.4-19.2 46.4-46.4v-244.8l-75.2 33.6-38.4 75.2c-4.8 9.6-9.6 14.4-14.4 19.2-9.6 4.8-14.4 9.6-24 9.6s-14.4 0-24-4.8c-9.6-4.8-9.6-9.6-19.2-14.4l-19.2-28.8-80 121.6c0 9.6-9.6 14.4-19.2 14.4-4.8 4.8-14.4 9.6-24 9.6-4.8 0-14.4-4.8-24-9.6-4.8 0-9.6-9.6-14.4-19.2l-104-211.2c-4.8-9.6-4.8-9.6 0-19.2 4.8-4.8 9.6-9.6 14.4-9.6h320l24-60.8h-376zM553.6 480c-4.8-4.8-9.6-9.6-9.6-14.4s0-9.6 4.8-14.4l4.8-14.4h-278.4l94.4 184c0 0 0 4.8 4.8 4.8h9.6c-4.8-4.8 0-4.8 0-9.6l89.6-145.6c4.8-4.8 4.8-4.8 14.4-4.8s9.6 4.8 14.4 9.6l38.4 51.2h12.8c0 0 0 0 4.8-4.8l19.2-33.6c-4.8 0-4.8 0-9.6 0s-9.6-3.2-14.4-8zM878.4 132.8v0h-4.8l-80 80c-4.8 4.8-4.8 4.8-9.6 4.8s-9.6-4.8-9.6-4.8l-70.4-70.4c0 0 0 0-4.8 0 0 0 0 0-4.8 0 0 0 0 0-4.8 0l-126.4 320c0 0 0 0 0 4.8 0 0 0 0 0 4.8s0 0 4.8 0c0 0 0 0 4.8 0l320-131.2c0 0 0 0 0-4.8 0 0 0 0 0-4.8 0 0 0 0 0-4.8l-70.4-70.4c-4.8-4.8-4.8-14.4 0-19.2l80-80-24-24z" />
<glyph unicode="&#xe917;" glyph-name="as-run-on-path" d="M811.2 187.2c-22.4 44.8-67.2 67.2-107.2 84.8-57.6 22.4-115.2 44.8-172.8 57.6-12.8 4.8-30.4 9.6-44.8 9.6-62.4 12.8-115.2 27.2-168 57.6-27.2 12.8-44.8 30.4-57.6 48-17.6 35.2-22.4 70.4-22.4 102.4 0 92.8 22.4 185.6 67.2 270.4 4.8 9.6 0 22.4-9.6 30.4-9.6 4.8-22.4 0-27.2-12.8-48-88-70.4-190.4-70.4-288 0-35.2 4.8-80 27.2-120 17.6-27.2 40-44.8 70.4-67.2 57.6-30.4 120-48 177.6-62.4 12.8-4.8 30.4-9.6 44.8-9.6 57.6-12.8 115.2-35.2 168-57.6 35.2-12.8 70.4-30.4 84.8-62.4 12.8-27.2 9.6-62.4 0-92.8-4.8-12.8 4.8-22.4 17.6-27.2h4.8c9.6 0 17.6 9.6 22.4 17.6 9.6 36.8 14.4 81.6-4.8 121.6zM532.8 363.2c4.8-4.8 12.8-9.6 22.4-9.6s12.8 4.8 22.4 9.6l44.8 44.8 9.6 4.8v4.8c12.8 17.6 22.4 40 22.4 62.4 0 52.8-44.8 97.6-97.6 97.6s-97.6-44.8-97.6-97.6c0-22.4 9.6-44.8 22.4-62.4l51.2-54.4zM555.2 532.8c27.2 0 52.8-22.4 52.8-52.8 0-12.8-4.8-27.2-12.8-35.2l-40-40-35.2 35.2c-12.8 12.8-17.6 27.2-17.6 40-1.6 30.4 20.8 52.8 52.8 52.8z" />
<glyph unicode="&#xe918;" glyph-name="as-slide-load" d="M155.2 804.8h496v-224c9.6 0 14.4 0 24 0s14.4 0 24 0v243.2c-1.6 14.4-11.2 24-25.6 24h-537.6c-14.4 0-24-9.6-24-24v-537.6c0-14.4 9.6-24 24-24h248c0 9.6 0 14.4 0 24s0 14.4 0 24h-228.8v494.4zM753.6 251.2l-70.4 52.8v105.6c0 11.2-8 19.2-19.2 19.2s-19.2-8-19.2-19.2v-115.2c0-6.4 3.2-11.2 8-16l76.8-57.6c3.2-3.2 8-3.2 11.2-3.2 6.4 0 11.2 3.2 16 8 6.4 8 4.8 19.2-3.2 25.6zM664 542.4c-136 0-248-110.4-248-248 1.6-136 112-246.4 248-246.4 137.6 0 248 110.4 248 248 0 136-110.4 246.4-248 246.4zM664 86.4c-115.2 0-209.6 94.4-209.6 209.6s94.4 209.6 209.6 209.6c115.2 0 209.6-94.4 209.6-209.6s-94.4-209.6-209.6-209.6z" />
<glyph unicode="&#xe919;" glyph-name="as-text-change" d="M873.6 643.2c24 0 38.4 14.4 38.4 38.4v126.4c0 24-14.4 38.4-38.4 38.4h-121.6c-24 0-38.4-14.4-38.4-38.4v-41.6h-400v41.6c0 24-14.4 38.4-38.4 38.4h-124.8c-24 0-38.4-14.4-38.4-38.4v-121.6c0-24 14.4-38.4 38.4-38.4h41.6v-400h-41.6c-24 0-38.4-14.4-38.4-38.4v-121.6c0-24 14.4-38.4 38.4-38.4h121.6c24 0 38.4 14.4 38.4 38.4v41.6h400v-41.6c0-24 14.4-38.4 38.4-38.4h121.6c24 0 38.4 14.4 38.4 38.4v121.6c0 24-14.4 38.4-38.4 38.4h-41.6v395.2h44.8zM150.4 686.4v121.6h121.6v-121.6h-121.6zM272 83.2h-121.6v121.6h121.6v-121.6zM710.4 206.4v-41.6h-396.8v41.6c0 24-14.4 38.4-38.4 38.4h-46.4v400h43.2c24 0 38.4 14.4 38.4 38.4v46.4h400v-41.6c0-24 14.4-38.4 38.4-38.4h46.4v-400h-43.2c-24-1.6-41.6-20.8-41.6-43.2zM873.6 206.4v-121.6h-121.6v121.6h121.6zM752 686.4v121.6h121.6v-121.6h-121.6zM281.6 596.8h116.8v-339.2h52.8v339.2h112v36.8h-281.6zM625.6 681.6h24v-465.6h-24v465.6z" />
<glyph unicode="&#xe91a;" glyph-name="as-to-slide" d="M888 772.8h-545.6c-14.4 0-24-9.6-24-24v-244.8c9.6 0 14.4 0 24 0s14.4 0 24 0v227.2h504v-504h-232c0-9.6 0-14.4 0-24s0-14.4 0-24h249.6c14.4 0 24 9.6 24 24v545.6c0 14.4-9.6 24-24 24zM558.4 288v0l-164.8 164.8c-4.8 4.8-19.2 4.8-24 0s-9.6-19.2 0-28.8l126.4-126.4h-364.8c-9.6 0-19.2-9.6-19.2-19.2s9.6-24 19.2-24h366.4l-126.4-126.4c-9.6-9.6-9.6-19.2 0-24 9.6-9.6 19.2-9.6 24 0l164.8 160c0 0 4.8 4.8 4.8 9.6s0 4.8 0 9.6-1.6-4.8-6.4 4.8c4.8-4.8 4.8 0 0 0z" />
<glyph unicode="&#xe91b;" glyph-name="as-value-change" d="M720 473.6h99.2c19.2 0 33.6 24 19.2 38.4l-48 65.6c-9.6 14.4-28.8 14.4-38.4 0l-48-65.6c-12.8-14.4-3.2-38.4 16-38.4zM819.2 427.2h-99.2c-19.2 0-33.6-24-19.2-38.4l48-65.6c9.6-14.4 28.8-14.4 38.4 0l48 65.6c12.8 14.4 3.2 38.4-16 38.4zM544 449.6c-28.8 9.6-60.8 24-104 33.6v198.4c52.8-4.8 99.2-19.2 147.2-48l28.8 65.6c-24 14.4-48 28.8-80 38.4-28.8 9.6-60.8 14.4-94.4 14.4v96h-52.8v-99.2c-60.8 0-113.6-19.2-142.4-48-33.6-33.6-48-70.4-48-113.6 0-38.4 9.6-65.6 28.8-84.8 19.2-24 38.4-38.4 65.6-52.8 28.8-9.6 60.8-24 99.2-33.6v-198.4c-33.6 0-65.6 9.6-99.2 24s-57.6 28.8-75.2 48l-38.4-70.4c24-19.2 52.8-38.4 89.6-52.8s75.2-19.2 118.4-24v-94.4h57.6v94.4c65.6 4.8 113.6 24 147.2 57.6s52.8 70.4 52.8 113.6c0 38.4-9.6 65.6-28.8 89.6-19.2 19.2-43.2 38.4-72 46.4zM388.8 497.6c-33.6 9.6-60.8 19.2-80 33.6s-28.8 33.6-28.8 57.6 9.6 43.2 28.8 60.8c19.2 19.2 48 28.8 80 33.6v-185.6zM531.2 246.4c-19.2-14.4-48-28.8-84.8-28.8v185.6c38.4-9.6 65.6-24 84.8-38.4 19.2-9.6 28.8-33.6 28.8-57.6s-11.2-41.6-28.8-60.8z" />
<glyph unicode="&#xe91c;" glyph-name="attachment" d="M548.8 819.2c-4.8 0-14.4-4.8-19.2-9.6l-352-347.2c-89.6-89.6-89.6-228.8 0-318.4s233.6-89.6 323.2 0l360 356.8c65.6 65.6 65.6 168 0 228.8-65.6 65.6-168 65.6-233.6 0l-312-308.8c-36.8-36.8-36.8-102.4 0-140.8s102.4-36.8 140.8 0l299.2 294.4c9.6 9.6 9.6 24 0 32-9.6 9.6-24 9.6-36.8 0l-300.8-294.4c-19.2-19.2-51.2-19.2-70.4 0s-19.2 51.2 0 70.4l313.6 308.8c46.4 41.6 116.8 41.6 163.2 0s46.4-116.8 0-160l-360-350.4c-70.4-70.4-182.4-70.4-248 0-70.4 70.4-70.4 177.6 0 248l352 347.2c14.4 14.4 4.8 43.2-19.2 43.2v0z" />
<glyph unicode="&#xe91d;" glyph-name="background" d="M715.2 48l196.8 196.8v56l-252.8-252.8zM587.2 48l324.8 324.8v56l-380.8-380.8zM459.2 48l452.8 452.8v56l-508.8-508.8zM331.2 48l580.8 580.8v56l-636.8-636.8zM153.6 54.4l8-6.4h41.6l708.8 708.8v56zM819.2 848l-707.2-707.2v-43.2l6.4-6.4 758.4 756.8zM691.2 848l-579.2-579.2v-57.6l636.8 636.8zM563.2 848l-451.2-451.2v-57.6l508.8 508.8zM436.8 848l-324.8-324.8v-56l380.8 380.8zM308.8 848l-196.8-196.8v-56l252.8 252.8z" />
<glyph unicode="&#xe91e;" glyph-name="backward" d="M819.2 723.2c-8 3.2-16 3.2-19.2 0l-248-176v160c0 8-3.2 16-12.8 19.2-8 3.2-16 0-19.2-3.2l-320-259.2c-3.2-3.2-8-8-8-16s3.2-12.8 8-16l320-259.2c3.2-3.2 16-3.2 19.2-3.2 8 3.2 12.8 12.8 12.8 19.2v160l248-176c8-3.2 16-3.2 19.2 0 4.8 4.8 12.8 12.8 12.8 16v518.4c0 8-3.2 16-12.8 16zM792 227.2l-248 176c-8 3.2-16 3.2-19.2 0s-12.8-8-12.8-16v-156.8l-268.8 216 268.8 216v-156.8c0-8 3.2-16 12.8-16s16-4.8 19.2 0l248 176v-438.4z" />
<glyph unicode="&#xe91f;" glyph-name="badge" d="M654.4 545.6l110.4 188.8c4.8 4.8 4.8 8 4.8 8v81.6c0 12.8-8 20.8-20.8 20.8h-451.2c-12.8 4.8-20.8-8-20.8-20.8v-81.6c0 0 0-4.8 4.8-8l110.4-188.8c-81.6-44.8-136-131.2-136-233.6 0-147.2 118.4-265.6 265.6-265.6s265.6 118.4 265.6 265.6c3.2 102.4-51.2 187.2-132.8 233.6zM604.8 808h123.2v-57.6l-110.4-188.8c-4.8 0-8 4.8-12.8 4.8v241.6zM483.2 808h81.6v-228.8c-12.8 4.8-28.8 4.8-41.6 4.8s-28.8 0-41.6-4.8v228.8zM318.4 750.4v57.6h123.2v-238.4c-4.8 0-8-4.8-12.8-4.8l-110.4 185.6zM523.2 86.4c-123.2 0-225.6 102.4-225.6 225.6 0 89.6 52.8 168 131.2 204.8 12.8 8 24 12.8 36.8 16 20.8 4.8 36.8 4.8 57.6 4.8s36.8-4.8 57.6-8c12.8 0 24-4.8 36.8-8 78.4-36.8 131.2-115.2 131.2-204.8 0-128-102.4-230.4-225.6-230.4zM638.4 356.8c-4.8 0-4.8 4.8-8 4.8h-60.8l-32 70.4c0 4.8-4.8 4.8-4.8 8-4.8 0-4.8 4.8-8 4.8s-4.8 0-8-4.8c-4.8 0-4.8-4.8-4.8-8l-32-70.4h-60.8c-4.8 0-8 0-8-4.8-4.8 0-4.8-4.8-4.8-8 0-4.8 0-4.8 0-8s4.8-4.8 4.8-8l49.6-49.6-28.8-70.4c0-4.8 0-8 0-8 0-4.8 4.8-8 4.8-8 4.8-4.8 4.8-4.8 8-4.8s8 0 8 4.8l70.4 41.6 70.4-41.6c4.8 0 8-4.8 8-4.8s8 0 8 4.8 4.8 4.8 4.8 8 0 8 0 8l-20.8 70.4 52.8 52.8c4.8 4.8 4.8 4.8 4.8 8s0 8 0 8c-9.6 0-9.6 4.8-12.8 4.8z" />
<glyph unicode="&#xe920;" glyph-name="bell" d="M696 670.4l22.4 89.6c9.6 35.2-12.8 76.8-49.6 84.8-36.8 9.6-76.8-12.8-84.8-48l-22.4-89.6c-107.2-4.8-211.2-76.8-238.4-188.8l-49.6-179.2-57.6-62.4c-9.6-12.8-12.8-27.2-9.6-44.8 4.8-17.6 17.6-27.2 32-32l152-40c-9.6-44.8 22.4-94.4 67.2-107.2 49.6-12.8 94.4 12.8 112 57.6l152-40c17.6-4.8 32 0 44.8 12.8s17.6 27.2 12.8 44.8l-16 80 49.6 179.2c25.6 113.6-22.4 225.6-116.8 283.2zM619.2 787.2c4.8 17.6 22.4 27.2 40 22.4s27.2-22.4 22.4-40l-22.4-81.6c-9.6 4.8-22.4 9.6-32 9.6-9.6 4.8-22.4 4.8-32 4.8l24 84.8zM467.2 88c-27.2 9.6-44.8 35.2-40 62.4l107.2-27.2c-9.6-27.2-41.6-40-67.2-35.2zM740.8 110.4c0 0-4.8-4.8-9.6-4.8l-484.8 134.4c-4.8 0-4.8 4.8-4.8 4.8s0 4.8 0 9.6l54.4 57.6 427.2-116.8 17.6-76.8c4.8-4.8 4.8-8 0-8zM771.2 396.8l-44.8-166.4-412.8 112 44.8 166.4c32 116.8 148.8 184 265.6 152 112-30.4 179.2-147.2 147.2-264z" />
<glyph unicode="&#xe921;" glyph-name="book-open" d="M889.6 124.8h8c4.8 0 6.4 0 8 1.6l3.2 1.6c3.2 1.6 4.8 4.8 4.8 14.4v521.6c1.6 4.8 0 8-1.6 11.2-3.2 3.2-8 4.8-12.8 4.8h-68.8v68.8c0 9.6-4.8 16-16 19.2-6.4 1.6-60.8 8-121.6-4.8-73.6-14.4-129.6-44.8-168-92.8l-8-11.2-11.2 12.8c-36.8 49.6-96 83.2-168 92.8-57.6 12.8-107.2 6.4-123.2 4.8-3.2 0-4.8 0-6.4 0-8 0-14.4-9.6-14.4-19.2v-68.8h-64c-8 0-19.2-4.8-19.2-19.2v-518.4c0-6.4 3.2-12.8 6.4-16 6.4-3.2 9.6-3.2 16-3.2 14.4 4.8 100.8 32 201.6 32 56 0 115.2-8 168-33.6 6.4-3.2 8-3.2 16 0 153.6 67.2 350.4 8 371.2 1.6zM828.8 254.4c3.2 3.2 4.8 9.6 6.4 11.2v384h49.6v-480l-12.8 3.2c-54.4 14.4-161.6 33.6-267.2 14.4l-48-9.6 41.6 27.2c89.6 59.2 209.6 46.4 216 44.8 4.8 1.6 8 1.6 14.4 4.8zM528 628.8h9.6c78.4 118.4 232 108.8 249.6 107.2l9.6-1.6v-446.4h-9.6c-24 0-57.6 0-96-4.8-56-9.6-107.2-32-145.6-65.6l-17.6-14.4v425.6zM425.6 192c-107.2 14.4-214.4-6.4-267.2-19.2l-12.8-3.2v480h49.6v-379.2c0-4.8 1.6-8 6.4-12.8 0 0 6.4-6.4 12.8-3.2l3.2 1.6c4.8 0 126.4 14.4 216-44.8l36.8-24-44.8 4.8zM470.4 211.2v9.6c-38.4 30.4-83.2 49.6-136 59.2-28.8 4.8-51.2 4.8-76.8 4.8h-30.4v451.2h9.6c124.8 0 209.6-38.4 251.2-112l1.6-1.6v-392c0 0 1.6 0 1.6-1.6l20.8-17.6h-41.6z" />
<glyph unicode="&#xe922;" glyph-name="book-open-quiz" d="M465.6 660.8c12.8 0 24 11.2 24 24s11.2 24 24 24c12.8 0 24-11.2 24-24 0-9.6-6.4-19.2-16-22.4-19.2-6.4-32-24-32-44.8v-3.2c0-12.8 11.2-24 24-24s24 11.2 24 24v3.2c0 0 0 0 0 0 27.2 9.6 46.4 36.8 46.4 65.6 0 38.4-32 70.4-70.4 70.4s-70.4-32-70.4-70.4c-1.6-12.8 9.6-22.4 22.4-22.4zM512 520c12.8 0 24 11.2 24 24s-11.2 24-24 24-24-11.2-24-24 11.2-24 24-24zM888 614.4h-72v70.4c0 12.8-11.2 24-24 24h-81.6c-28.8 80-107.2 139.2-198.4 139.2s-169.6-59.2-198.4-140.8h-81.6c-12.8 0-24-11.2-24-24v-70.4h-72c-12.8 0-24-11.2-24-24v-472c0-12.8 11.2-24 24-24h273.6l40-40c4.8-4.8 9.6-6.4 16-6.4h94.4c6.4 0 12.8 3.2 16 6.4l40 40h273.6c12.8 0 24 11.2 24 24v473.6c-1.6 12.8-12.8 24-25.6 24zM769.6 660.8v-425.6h-211.2c-8 0-16-1.6-24-4.8v121.6c16 43.2 44.8 81.6 84.8 105.6 62.4 36.8 102.4 104 102.4 180.8 0 8 0 16-1.6 24h49.6zM512 801.6c91.2 0 164.8-73.6 164.8-164.8 0-57.6-30.4-110.4-80-140.8-35.2-20.8-64-49.6-84.8-84.8-20.8 35.2-49.6 64-84.8 84.8-49.6 30.4-80 81.6-80 140.8 0 91.2 73.6 164.8 164.8 164.8zM254.4 660.8h48c-1.6-8-1.6-16-1.6-24 0-76.8 40-144 102.4-180.8 40-24 70.4-60.8 84.8-105.6v-120c-8 3.2-16 4.8-24 4.8h-209.6v425.6zM865.6 142.4h-259.2c-6.4 0-12.8-3.2-16-6.4l-40-40h-73.6l-40 40c-4.8 4.8-9.6 6.4-16 6.4h-262.4v424h48v-355.2c0-12.8 11.2-24 24-24h233.6c12.8 0 24-11.2 24-24s11.2-24 24-24 24 11.2 24 24c0 0 0 0 0 0v0c0 12.8 11.2 24 24 24h233.6c12.8 0 24 11.2 24 24v355.2h48v-424z" />
<glyph unicode="&#xe923;" glyph-name="book-window" d="M841.6 785.6h-667.2c-38.4 0-65.6-28.8-65.6-70.4v-536c0-38.4 28.8-70.4 65.6-70.4h668.8c38.4 0 65.6 28.8 65.6 70.4v536c-1.6 36.8-28.8 70.4-67.2 70.4zM880 179.2c0-24-19.2-41.6-38.4-41.6h-667.2c-24 0-38.4 19.2-38.4 41.6v412.8h744v-412.8zM880 620.8h-744v94.4c0 24 19.2 41.6 38.4 41.6h668.8c24 0 38.4-19.2 38.4-41.6v-94.4zM315.2 739.2c-28.8 0-46.4-24-46.4-51.2s24-51.2 46.4-51.2c28.8 0 46.4 24 46.4 51.2s-19.2 51.2-46.4 51.2zM315.2 664c-14.4 0-24 9.6-24 24s9.6 24 24 24c14.4 0 24-9.6 24-24s-9.6-24-24-24zM432 739.2c-28.8 0-46.4-24-46.4-51.2s24-51.2 46.4-51.2c28.8 0 46.4 24 46.4 51.2s-17.6 51.2-46.4 51.2zM432 664c-14.4 0-24 9.6-24 24s9.6 24 24 24c14.4 0 24-9.6 24-24s-9.6-24-24-24zM201.6 739.2c-28.8 0-46.4-24-46.4-51.2s24-51.2 46.4-51.2c28.8 0 46.4 24 46.4 51.2s-17.6 51.2-46.4 51.2zM201.6 664c-14.4 0-24 9.6-24 24s9.6 24 24 24c9.6 0 24-9.6 24-24s-14.4-24-24-24zM291.2 216h150.4c4.8 0 4.8 0 9.6 0l41.6-14.4c9.6-4.8 24-4.8 33.6 0l41.6 14.4c4.8 0 4.8 0 9.6 0h150.4c9.6 0 14.4 4.8 14.4 14.4v281.6c0 9.6-4.8 14.4-14.4 14.4h-150.4c-4.8 0-14.4 0-19.2-4.8l-41.6-14.4c-4.8 0-9.6 0-19.2 0l-38.4 14.4c-4.8 0-9.6 4.8-19.2 4.8h-150.4c-9.6 0-14.4-4.8-14.4-14.4v-278.4c1.6-8 6.4-17.6 16-17.6zM521.6 480v0l41.6 14.4c4.8 0 4.8 0 9.6 0h140.8v-254.4h-140.8c-4.8 0-14.4 0-19.2-4.8l-33.6-14.4v259.2zM300.8 499.2h140.8c4.8 0 4.8 0 9.6 0l41.6-14.4h4.8v-249.6l-38.4 9.6c-4.8 0-9.6 4.8-19.2 4.8h-140.8l1.6 249.6zM569.6 432h46.4c9.6 0 14.4 4.8 14.4 14.4s-4.8 14.4-14.4 14.4h-46.4c-9.6 0-14.4-4.8-14.4-14.4s4.8-14.4 14.4-14.4zM569.6 385.6h102.4c9.6 0 14.4 4.8 14.4 14.4s-4.8 14.4-14.4 14.4h-104c-9.6 0-14.4-4.8-14.4-14.4s6.4-14.4 16-14.4zM569.6 334.4h102.4c9.6 0 14.4 4.8 14.4 14.4s-4.8 14.4-14.4 14.4h-104c-9.6 0-14.4-4.8-14.4-14.4 1.6-9.6 6.4-14.4 16-14.4zM569.6 281.6h102.4c9.6 0 14.4 4.8 14.4 14.4s-4.8 14.4-14.4 14.4h-104c-9.6 0-14.4-4.8-14.4-14.4 1.6-9.6 6.4-14.4 16-14.4z" />
<glyph unicode="&#xe924;" glyph-name="bookmark" d="M774.4 844.8h-532.8c-27.2 0-44.8-17.6-44.8-44.8v-710.4c0-17.6 9.6-30.4 27.2-40s35.2-4.8 49.6 4.8l240 200 240-200c12.8-9.6 30.4-12.8 49.6-4.8 17.6 9.6 27.2 22.4 27.2 40v710.4c-11.2 27.2-30.4 44.8-56 44.8zM774.4 89.6l-267.2 222.4-265.6-222.4v710.4h532.8v-710.4z" />
<glyph unicode="&#xe925;" glyph-name="buy-online" d="M832 694.4h-259.2c-4.8 0-14.4-4.8-14.4-14.4s4.8-14.4 14.4-14.4h259.2c24 0 46.4-19.2 46.4-46.4v-315.2c0-24-19.2-46.4-46.4-46.4h-51.2c-9.6 0-14.4-4.8-14.4-14.4s4.8-14.4 14.4-14.4h51.2c41.6 0 80 33.6 80 80v310.4c0 41.6-33.6 75.2-80 75.2zM460.8 256h-268.8c-24 0-46.4 19.2-46.4 46.4v316.8c0 24 19.2 46.4 46.4 46.4h259.2c9.6-4.8 14.4 4.8 14.4 14.4s-4.8 14.4-14.4 14.4h-259.2c-41.6 0-80-33.6-80-80v-310.4c0-41.6 33.6-80 80-80h268.8c9.6 0 14.4 4.8 14.4 14.4-1.6 8-9.6 17.6-14.4 17.6zM572.8 420.8v131.2c0 9.6-4.8 14.4-14.4 14.4s-14.4-4.8-14.4-14.4v-131.2c0-19.2-19.2-38.4-38.4-38.4s-41.6 14.4-41.6 38.4v131.2c0 9.6-4.8 14.4-14.4 14.4s-14.4-4.8-14.4-14.4v-131.2c0-38.4 28.8-70.4 70.4-70.4s67.2 33.6 67.2 70.4zM305.6 571.2h-60.8c-9.6 0-14.4-9.6-14.4-19.2v-188.8c0-4.8 4.8-14.4 14.4-14.4h60.8c38.4 0 65.6 28.8 65.6 60.8 0 19.2-9.6 38.4-24 46.4 14.4 14.4 24 28.8 24 46.4 0 41.6-28.8 68.8-65.6 68.8zM305.6 384h-46.4v60.8h46.4c19.2 0 33.6-14.4 33.6-33.6-1.6-14.4-16-27.2-33.6-27.2zM305.6 476.8h-46.4v60.8h46.4c19.2 0 33.6-14.4 33.6-33.6s-16-27.2-33.6-27.2zM718.4 350.4c9.6 0 14.4 4.8 14.4 14.4v60.8l60.8 121.6c4.8 9.6 0 19.2-4.8 19.2-9.6 4.8-19.2 0-19.2-4.8l-46.4-94.4-46.4 94.4c-4.8 9.6-14.4 9.6-19.2 4.8-9.6-4.8-9.6-14.4-4.8-19.2l60.8-118.4v-60.8c-12.8-8-3.2-17.6 4.8-17.6zM512 721.6c9.6 0 14.4 4.8 14.4 14.4v94.4c0 9.6-4.8 14.4-14.4 14.4s-14.4-4.8-14.4-14.4v-94.4c0-9.6 4.8-14.4 14.4-14.4zM592 712c4.8 0 9.6 0 9.6 4.8l38.4 38.4c4.8 4.8 4.8 14.4 0 24-4.8 4.8-14.4 4.8-24 0l-38.4-38.4c-4.8-4.8-4.8-14.4 0-24 9.6-4.8 14.4-4.8 14.4-4.8zM417.6 716.8c4.8-4.8 4.8-4.8 9.6-4.8s9.6 0 9.6 4.8 4.8 14.4 0 24l-33.6 33.6c-4.8 9.6-19.2 9.6-24 0-4.8-4.8-4.8-14.4 0-24l38.4-33.6zM696 209.6l28.8 28.8c4.8 4.8 4.8 9.6 4.8 14.4s-4.8 9.6-9.6 9.6l-188.8 51.2c-4.8 0-9.6 0-14.4-4.8s-4.8-9.6-4.8-14.4l51.2-188.8c0-4.8 4.8-9.6 9.6-9.6s9.6 0 14.4 4.8l19.2 14.4 65.6-65.6c4.8-4.8 4.8-4.8 9.6-4.8s9.6 0 9.6 4.8l70.4 70.4c4.8 4.8 4.8 14.4 0 24l-65.6 65.6zM686.4 81.6l-65.6 65.6c-4.8 4.8-4.8 4.8-9.6 4.8s-9.6 0-9.6-4.8l-9.6-8-38.4 136 136-38.4-17.6-17.6c-4.8-4.8-4.8-14.4 0-24l65.6-65.6-51.2-48zM512 660.8c4.8 0 9.6 0 9.6 4.8 4.8 4.8 4.8 4.8 4.8 9.6s0 9.6-4.8 9.6-4.8 4.8-9.6 4.8-9.6 0-9.6-4.8c-4.8 4.8-4.8 0-4.8-4.8s0-9.6 4.8-9.6c0-4.8 4.8-9.6 9.6-9.6z" />
<glyph unicode="&#xe926;" glyph-name="calendar" d="M787.2 798.4h-25.6v24c0 16-9.6 25.6-24 25.6s-25.6-9.6-25.6-25.6v-25.6h-400v25.6c0 14.4-9.6 25.6-25.6 25.6-14.4 0-25.6-9.6-25.6-25.6v-25.6h-25.6c-70.4 0-124.8-54.4-124.8-124.8v-499.2c0-70.4 54.4-124.8 124.8-124.8h550.4c70.4 0 124.8 54.4 124.8 124.8v500.8c1.6 68.8-52.8 124.8-123.2 124.8zM236.8 748.8h25.6v-25.6c0-14.4 9.6-25.6 25.6-25.6 14.4 0 25.6 9.6 25.6 25.6v25.6h400v-25.6c0-14.4 9.6-25.6 25.6-25.6 14.4 0 25.6 9.6 25.6 25.6v25.6h25.6c40 0 75.2-35.2 75.2-75.2v-25.6h-704v25.6c0 40 35.2 75.2 75.2 75.2zM787.2 97.6h-550.4c-40 0-75.2 35.2-75.2 75.2v425.6h700.8v-425.6c0-40-35.2-75.2-75.2-75.2zM361.6 448c0-27.393-22.207-49.6-49.6-49.6s-49.6 22.207-49.6 49.6c0 27.393 22.207 49.6 49.6 49.6s49.6-22.207 49.6-49.6zM561.6 448c0-27.393-22.207-49.6-49.6-49.6s-49.6 22.207-49.6 49.6c0 27.393 22.207 49.6 49.6 49.6s49.6-22.207 49.6-49.6zM361.6 248c0-27.393-22.207-49.6-49.6-49.6s-49.6 22.207-49.6 49.6c0 27.393 22.207 49.6 49.6 49.6s49.6-22.207 49.6-49.6zM561.6 248c0-27.393-22.207-49.6-49.6-49.6s-49.6 22.207-49.6 49.6c0 27.393 22.207 49.6 49.6 49.6s49.6-22.207 49.6-49.6zM761.6 448c0-27.393-22.207-49.6-49.6-49.6s-49.6 22.207-49.6 49.6c0 27.393 22.207 49.6 49.6 49.6s49.6-22.207 49.6-49.6z" />
<glyph unicode="&#xe927;" glyph-name="camera" d="M824 665.6h-128l-4.8 12.8c-16 56-64 92.8-120 92.8h-112c-56 0-104-36.8-120-92.8v-12.8h-132.8c-52.8 0-92.8-40-92.8-92.8v-350.4c0-52.8 44.8-96 96-96h606.4c52.8 0 96 44.8 96 96v350.4c3.2 52.8-36.8 92.8-88 92.8zM875.2 222.4c0-32-24-56-56-56h-611.2c-32 0-56 24-56 56v350.4c0 28.8 24 52.8 52.8 52.8h148.8c8 0 16 8 20.8 16l8 28.8c4.8 36.8 36.8 60.8 76.8 60.8h116.8c36.8 0 68.8-24 76.8-60.8l8-28.8c4.8-8 12.8-16 20.8-16h144c28.8 0 52.8-24 52.8-52.8-3.2 0-3.2-350.4-3.2-350.4zM260.8 548.8c0-11.488-9.312-20.8-20.8-20.8s-20.8 9.312-20.8 20.8c0 11.488 9.312 20.8 20.8 20.8s20.8-9.312 20.8-20.8zM513.6 568c-88 0-160-72-160-160s72-160 160-160 160 72 160 160-72 160-160 160zM513.6 288c-68.8 0-120 52.8-120 120s52.8 120 120 120 120-52.8 120-120-51.2-120-120-120z" />
<glyph unicode="&#xe928;" glyph-name="canvas" d="M868.8 801.6h-756.8v-65.6h41.6v-427.2h302.4l-214.4-214.4h64l192 187.2v-187.2h46.4l-1.6 188.8 193.6-188.8h62.4l-214.4 214.4h284.8v427.2h43.2v65.6h-43.2zM204.8 350.4v384h614.4v-384h-614.4z" />
<glyph unicode="&#xe929;" glyph-name="book" d="M764.8 848h-451.2c-56 0-100.8-44.8-100.8-100.8v-598.4c0-56 44.8-100.8 100.8-100.8h451.2c12.8 0 24 4.8 33.6 12.8 8 8 12.8 20.8 12.8 32v708.8c0 25.6-20.8 46.4-46.4 46.4zM564.8 809.6h112v-179.2l-40 64c-1.6 3.2-3.2 4.8-6.4 6.4-9.6 4.8-20.8 3.2-25.6-6.4l-40-62.4v177.6zM772.8 168h-438.4c-11.2 0-19.2-8-19.2-19.2s8-19.2 19.2-19.2h438.4v-35.2c0-1.6 0-4.8-1.6-6.4s-3.2-1.6-6.4-1.6h-451.2c-35.2 0-62.4 28.8-62.4 62.4 0 35.2 28.8 62.4 62.4 62.4h451.2c4.8 0 8-3.2 8-8v-35.2zM772.8 249.6c-3.2 0-4.8 0-8 0h-451.2c-22.4 0-44.8-8-62.4-22.4v520c0 35.2 28.8 62.4 62.4 62.4h212.8v-193.6c0-16 9.6-28.8 24-33.6 16-4.8 32 6.4 40 20.8l30.4 48 30.4-48c9.6-14.4 24-25.6 41.6-20.8 14.4 4.8 24 19.2 24 33.6v193.6h49.6c4.8 0 8-3.2 8-8v-552z" />
<glyph unicode="&#xe92a;" glyph-name="book-window-2" d="M888 824h-752c-12.8 0-24-9.6-24-22.4v-579.2c0-12.8 11.2-24 24-24h235.2v-81.6h-57.6c-12.8 0-24-11.2-24-24s11.2-24 24-24h396.8c12.8 0 24 11.2 24 24s-11.2 24-24 24h-57.6v81.6h235.2c12.8 0 24 11.2 24 24v579.2c0 12.8-11.2 22.4-24 22.4zM417.6 118.4v76.8h187.2v-76.8h-187.2zM865.6 777.6v-436.8h-46.4v291.2c0 12.8-11.2 24-24 24h-94.4c-12.8 0-24-11.2-24-24v-292.8h-60.8v368c0 12.8-11.2 24-24 24h-140.8c-12.8 0-24-11.2-24-24v-368h-35.2v235.2c0 12.8-11.2 24-24 24h-140.8c-12.8 0-24-11.2-24-24v-233.6h-44.8v436.8h707.2zM865.6 246.4h-707.2v46.4h705.6v-46.4zM252.8 472h94.4v-126.4h-94.4v126.4zM345.6 518.4h-94.4v33.6h94.4v-33.6zM569.6 436.8h-94.4v155.2h94.4v-155.2zM475.2 390.4h94.4v-46.4h-94.4v46.4zM569.6 638.4h-94.4v46.4h94.4v-46.4zM771.2 468.8h-46.4v46.4h46.4v-46.4zM724.8 420.8h46.4v-76.8h-46.4v76.8zM771.2 561.6h-46.4v46.4h46.4v-46.4z" />
<glyph unicode="&#xe92b;" glyph-name="caret-down" d="M824 579.2c9.6 9.6 9.6 25.6 6.4 35.2-9.6 9.6-24 8-33.6-1.6l-284.8-275.2-276.8 276.8c-9.6 9.6-25.6 9.6-35.2 0s-9.6-25.6-6.4-35.2l296-296c9.6-9.6 24-9.6 35.2 0l299.2 296z" />
<glyph unicode="&#xe92c;" glyph-name="caret-left" d="M678.4 169.6l-276.8 278.4 278.4 278.4c9.6 9.6 9.6 24 0 35.2-4.8 4.8-11.2 8-17.6 8s-12.8-3.2-17.6-8l-299.2-292.8c-4.8-4.8-8-11.2-8-17.6s3.2-12.8 8-17.6l299.2-299.2c9.6-9.6 25.6-9.6 35.2 0 8 11.2 8 25.6-1.6 35.2z" />
<glyph unicode="&#xe92d;" glyph-name="caret-right" d="M686.4 438.4c0 0 1.6 1.6 1.6 4.8 0 6.4-1.6 16-8 20.8l-299.2 300.8c-11.2 4.8-27.2 4.8-36.8 0-4.8-4.8-6.4-11.2-6.4-16 0-6.4 3.2-12.8 8-17.6l278.4-280-280-280c-4.8-4.8-8-11.2-8-17.6s3.2-12.8 8-17.6c9.6-9.6 25.6-9.6 35.2 0l302.4 302.4h4.8z" />
<glyph unicode="&#xe92e;" glyph-name="cart-window" d="M827.2 848h-630.4c-46.4 0-84.8-38.4-84.8-84.8v-428.8c0-46.4 38.4-84.8 84.8-84.8h216v-51.2h-51.2c-41.6 0-75.2-33.6-75.2-75.2s33.6-75.2 75.2-75.2h300.8c41.6 0 75.2 33.6 75.2 75.2s-33.6 75.2-75.2 75.2h-51.2v51.2h216c46.4 0 84.8 38.4 84.8 84.8v428.8c0 46.4-38.4 84.8-84.8 84.8zM691.2 123.2c0-14.4-14.4-28.8-28.8-28.8h-300.8c-14.4 0-28.8 14.4-28.8 28.8s14.4 28.8 28.8 28.8h300.8c14.4-4.8 28.8-14.4 28.8-28.8zM563.2 193.6h-104v51.2h104v-51.2zM865.6 334.4c0-24-19.2-38.4-38.4-38.4h-630.4c-24 0-38.4 19.2-38.4 38.4v428.8c0 24 19.2 38.4 38.4 38.4h625.6c24 0 38.4-19.2 38.4-38.4v-428.8h4.8zM667.2 692.8h-281.6v24c0 14.4-14.4 24-24 24h-46.4c-14.4 0-24-9.6-24-24s9.6-24 24-24h24v-150.4c0-24 9.6-46.4 28.8-60.8-9.6-14.4-19.2-28.8-19.2-46.4 0-41.6 33.6-75.2 75.2-75.2s75.2 33.6 75.2 75.2c0 9.6 0 19.2-4.8 28.8h65.6c-4.8-9.6-4.8-19.2-4.8-28.8 0-41.6 33.6-75.2 75.2-75.2s75.2 33.6 75.2 75.2c0 19.2-4.8 33.6-14.4 46.4 19.2 14.4 33.6 33.6 38.4 56l19.2 75.2c4.8 24 0 41.6-9.6 60.8-28.8 9.6-52.8 19.2-72 19.2zM446.4 428.8c0-14.4-14.4-28.8-28.8-28.8s-28.8 14.4-28.8 28.8c0 19.2 14.4 28.8 28.8 28.8s28.8-9.6 28.8-28.8zM643.2 428.8c0-14.4-14.4-28.8-28.8-28.8s-28.8 14.4-28.8 28.8c0 14.4 14.4 28.8 28.8 28.8 19.2 0 28.8-9.6 28.8-28.8zM686.4 617.6l-19.2-75.2c-4.8-19.2-28.8-38.4-51.2-38.4h-198.4c-19.2 0-33.6 14.4-33.6 38.4v104h281.6c9.6 0 14.4-4.8 19.2-9.6 1.6-4.8 6.4-9.6 1.6-19.2z" />
<glyph unicode="&#xe92f;" glyph-name="change" d="M360 510.4c0 3.2 0 11.2-4.8 16s-12.8 4.8-16 4.8c-3.2 0-11.2 0-16-4.8l-76.8-64c1.6 22.4 6.4 44.8 12.8 62.4 9.6 38.4 28.8 73.6 54.4 99.2 24 24 52.8 49.6 91.2 64 25.6 14.4 62.4 22.4 108.8 22.4 0 0 1.6 0 1.6 0l4.8-16v16c36.8 0 65.6-6.4 92.8-17.6 40-17.6 67.2-35.2 86.4-59.2 4.8-4.8 12.8-4.8 16-4.8s11.2 0 16 4.8c4.8 4.8 4.8 12.8 4.8 16s0 11.2-4.8 16c-27.2 27.2-65.6 51.2-104 67.2-36.8 14.4-73.6 22.4-107.2 24v4.8h-8c-44.8 0-91.2-9.6-128-28.8-32-16-73.6-40-104-80-36.8-36.8-54.4-76.8-65.6-108.8-6.4-17.6-11.2-35.2-12.8-52.8l-46.4 60.8h-1.6c-11.2 4.8-22.4 11.2-30.4 3.2-11.2-12.8-11.2-24-11.2-28.8v-1.6l94.4-123.2 6.4-6.4h20.8l1.6-1.6 120 100.8c4.8 4.8 4.8 12.8 4.8 16zM908.8 371.2l-96 129.6h-27.2c-4.8 0-9.6-3.2-11.2-8l-110.4-96c-6.4-6.4-6.4-25.6 0-32 4.8-4.8 12.8-4.8 16-4.8s11.2 0 16 4.8l72 64c-1.6-43.2-12.8-83.2-32-112-27.2-51.2-70.4-91.2-116.8-113.6-51.2-24-107.2-32-158.4-22.4-52.8 9.6-104 35.2-145.6 76.8-4.8 4.8-12.8 4.8-16 4.8s-11.2 0-16-4.8c-4.8-4.8-4.8-12.8-4.8-16s0-11.2 4.8-16c44.8-44.8 107.2-76.8 171.2-84.8 16-1.6 32-3.2 48-3.2 48 0 94.4 11.2 140.8 32 56 27.2 102.4 73.6 137.6 132.8 17.6 41.6 30.4 78.4 35.2 112l51.2-67.2c6.4-6.4 22.4-12.8 32-4.8 6.4 3.2 9.6 8 9.6 14.4 3.2 3.2 3.2 8 0 14.4z" />
<glyph unicode="&#xe930;" glyph-name="change-lock" d="M529.6 624c-59.2 0-107.2-48-107.2-107.2v-52.8h-33.6c-11.2 0-19.2-8-19.2-19.2v-182.4c0-11.2 8-19.2 19.2-19.2h281.6c11.2 0 19.2 8 19.2 19.2v182.4c0 11.2-8 19.2-19.2 19.2h-33.6v51.2c0 60.8-48 108.8-107.2 108.8zM459.2 515.2c0 41.6 33.6 70.4 70.4 70.4 41.6 0 70.4-33.6 70.4-70.4v-51.2h-140.8v51.2zM656 427.2v-145.6h-249.6v145.6h249.6zM113.6 792c1.6 1.6 3.2 3.2 4.8 3.2l54.4 9.6c1.6 0 4.8 0 4.8-1.6s1.6-1.6 3.2-4.8l24-131.2 19.2 24c19.2 24 41.6 46.4 67.2 65.6 68.8 52.8 150.4 80 235.2 80 121.6 0 235.2-56 308.8-152 62.4-81.6 89.6-184 76.8-286.4-14.4-102.4-67.2-193.6-148.8-257.6-68.8-52.8-150.4-80-235.2-80-17.6 0-35.2 1.6-51.2 3.2-102.4 14.4-193.6 67.2-257.6 148.8-38.4 49.6-64 108.8-75.2 171.2 0 3.2 1.6 6.4 4.8 8l54.4 9.6c1.6 0 3.2 0 4.8-1.6s3.2-3.2 3.2-4.8c8-51.2 30.4-99.2 60.8-140.8 52.8-67.2 128-112 212.8-123.2 11.2-3.2 25.6-3.2 40-3.2 70.4 0 137.6 22.4 193.6 65.6 67.2 52.8 112 128 123.2 212.8s-11.2 169.6-64 236.8c-60.8 80-153.6 124.8-254.4 124.8-70.4 0-137.6-22.4-195.2-65.6-19.2-14.4-35.2-30.4-49.6-48l-24-28.8 137.6 24c1.6 0 3.2 0 4.8-1.6s3.2-3.2 3.2-4.8l9.6-54.4c0-1.6 0-4.8-1.6-4.8 0-1.6-1.6-1.6-4.8-3.2l-241.6-43.2c-4.8 0-6.4 1.6-8 4.8l-41.6 244.8c0 1.6 0 4.8 1.6 4.8z" />
<glyph unicode="&#xe931;" glyph-name="chalkboard" d="M907.2 244.8c-4.8 4.8-9.6 4.8-14.4 4.8h-9.6v462.4c0 4.8 0 4.8-4.8 9.6s-4.8 4.8-9.6 4.8h-720c-4.8 0-4.8 0-9.6-4.8 0-4.8-4.8-9.6-4.8-9.6v-462.4h-8c-4.8 0-4.8 0-9.6-4.8s-4.8-4.8-4.8-9.6v-51.2c0-4.8 0-4.8 4.8-9.6s4.8-4.8 9.6-4.8h771.2c4.8 0 4.8 0 9.6 4.8s4.8 4.8 4.8 9.6v51.2c0 4.8 0 4.8-4.8 9.6zM163.2 697.6h692.8v-449.6h-14.4v422.4c0 4.8 0 4.8-4.8 9.6s-4.8 4.8-9.6 4.8h-640c0 0-4.8 0-4.8-4.8-4.8 0-4.8-4.8-4.8-9.6v-420.8h-14.4v448zM673.6 345.6c-9.6 4.8-24 14.4-46.4 4.8-24-9.6-46.4-4.8-56 9.6s-14.4 46.4 19.2 84.8c14.4 14.4 19.2 28.8 9.6 41.6-9.6 14.4-28.8 19.2-121.6-4.8-46.4-14.4-92.8-28.8-92.8-28.8-4.8 0-4.8-4.8-9.6-4.8 0-4.8 0-4.8 0-9.6s4.8-4.8 4.8-9.6c4.8 0 4.8 0 9.6 0 0 0 41.6 14.4 89.6 28.8 70.4 14.4 92.8 14.4 97.6 9.6 0-4.8-4.8-4.8-4.8-9.6-41.6-51.2-36.8-92.8-19.2-116.8 19.2-24 51.2-32 84.8-19.2 9.6 4.8 19.2 4.8 24 0 14.4-9.6 14.4-46.4 9.6-65.6 0-3.2 0-4.8 3.2-6.4h-230.4v51.2c0 4.8 0 4.8-4.8 9.6-4.8 0-9.6 4.8-9.6 4.8h-140.8c-4.8 0-4.8 0-9.6-4.8s-4.8-4.8-4.8-9.6v-51.2h-75.2v411.2h617.6v-411.2h-123.2c1.6 1.6 1.6 4.8 1.6 6.4 0 4.8 9.6 65.6-22.4 89.6zM416 286.4v-36.8h-116.8v36.8h116.8zM883.2 198.4h-747.2v24h748.8v-24zM350.4 390.4l-9.6-4.8-14.4-14.4c0 0-4.8-4.8-4.8-9.6s0-4.8 4.8-9.6 4.8-4.8 9.6-4.8 4.8 0 9.6 4.8l14.4 14.4c4.8 4.8 4.8 4.8 4.8 9.6s0 4.8-4.8 9.6c-4.8 0-9.6 4.8-9.6 4.8z" />
<glyph unicode="&#xe932;" glyph-name="chart" d="M547.2 848c-240 0-435.2-195.2-435.2-435.2 0-12.8 11.2-24 24-24h411.2c12.8 0 24 11.2 24 24v411.2c0 12.8-11.2 24-24 24zM521.6 438.4h-358.4c12.8 192 166.4 345.6 358.4 358.4v-358.4zM380.8 321.6c-4.8 8-12.8 12.8-20.8 12.8h-139.2c-8 0-14.4-3.2-19.2-9.6s-6.4-14.4-3.2-20.8c40-124.8 144-222.4 275.2-248 16-3.2 33.6-4.8 49.6-6.4v174.4c-59.2 8-113.6 43.2-142.4 97.6zM473.6 105.6c-96 22.4-174.4 89.6-214.4 177.6h84.8c30.4-48 76.8-83.2 129.6-99.2v-78.4zM638.4 579.2c54.4-30.4 89.6-83.2 97.6-144h176c-1.6 17.6-3.2 33.6-6.4 49.6-27.2 131.2-123.2 235.2-248 275.2-6.4 1.6-14.4 1.6-20.8-3.2s-9.6-11.2-9.6-19.2v-139.2c0-6.4 3.2-14.4 11.2-19.2zM571.2 224v-176c17.6 1.6 33.6 3.2 49.6 6.4 142.4 28.8 256 140.8 284.8 284.8 3.2 16 4.8 33.6 6.4 49.6h-176c-11.2-86.4-78.4-153.6-164.8-164.8zM854.4 339.2c-27.2-115.2-118.4-206.4-233.6-233.6v78.4c73.6 24 131.2 81.6 155.2 155.2h78.4z" />
<glyph unicode="&#xe933;" glyph-name="chart-bar" d="M888 203.2h-41.6v513.6c0 14.4-9.6 24-24 24h-89.6c-14.4 0-24-9.6-24-24v-513.6h-41.6v244.8c0 14.4-9.6 24-24 24h-89.6c-14.4 0-24-9.6-24-24v-244.8h-41.6v334.4c0 14.4-9.6 24-24 24h-84.8c-14.4 0-24-9.6-24-24v-334.4h-41.6v155.2c0 14.4-9.6 24-24 24h-89.6c-14.4 0-24-9.6-24-24v-155.2h-40c-14.4 0-24-9.6-24-24s9.6-24 24-24h753.6c14.4 0 24 9.6 24 24s-11.2 24-25.6 24zM267.2 203.2h-41.6v131.2h41.6v-131.2zM446.4 203.2h-46.4v310.4h41.6v-310.4h4.8zM625.6 203.2h-41.6v220.8h41.6v-220.8zM798.4 203.2h-41.6v489.6h41.6v-489.6z" />
<glyph unicode="&#xe934;" glyph-name="chart-bubble" d="M888 94.4h-752c-14.4 0-24-9.6-24-24s9.6-22.4 24-22.4h753.6c14.4 0 24 9.6 24 24s-11.2 22.4-25.6 22.4zM112 824v-742.4c0-24 9.6-33.6 24-33.6s24 9.6 24 24v752c-1.6 14.4-9.6 24-24 24s-24-9.6-24-24zM276.8 316.8c-28.8 0-46.4-19.2-46.4-46.4s19.2-46.4 46.4-46.4 46.4 19.2 46.4 46.4c0 22.4-17.6 46.4-46.4 46.4zM276.8 246.4c-14.4 0-24 9.6-24 24s9.6 24 24 24c14.4 0 24-9.6 24-24s-9.6-24-24-24zM747.2 486.4c-38.4 0-70.4-33.6-70.4-70.4s33.6-70.4 70.4-70.4c38.4 0 70.4 33.6 70.4 70.4s-27.2 70.4-70.4 70.4zM747.2 368c-28.8 0-46.4 19.2-46.4 46.4s19.2 46.4 46.4 46.4c28.8 0 46.4-19.2 46.4-46.4s-17.6-46.4-46.4-46.4zM512 702.4c-51.2 0-94.4-41.6-94.4-94.4s41.6-94.4 94.4-94.4 94.4 41.6 94.4 94.4c0 51.2-43.2 94.4-94.4 94.4zM512 537.6c-38.4 0-70.4 33.6-70.4 70.4s33.6 70.4 70.4 70.4 70.4-33.6 70.4-70.4-32-70.4-70.4-70.4z" />
<glyph unicode="&#xe935;" glyph-name="chart-line" d="M240 280c38.4 0 65.6 28.8 65.6 65.6 0 9.6-4.8 19.2-4.8 28.8l89.6 89.6c9.6-4.8 19.2-4.8 28.8-4.8 19.2 0 33.6 9.6 46.4 19.2l65.6-33.6c0-4.8 0-4.8 0-9.6 0-38.4 28.8-65.6 65.6-65.6 38.4 0 65.6 28.8 65.6 65.6 0 14.4-4.8 28.8-14.4 38.4l108.8 164.8c4.8 0 9.6 0 14.4 0 38.4 0 65.6 28.8 65.6 65.6s-28.8 65.6-65.6 65.6-65.6-28.8-65.6-65.6c0-14.4 4.8-28.8 14.4-38.4l-108.8-164.8c-4.8 0-9.6 0-14.4 0-19.2 0-33.6-9.6-46.4-19.2l-65.6 33.6c0 4.8 0 4.8 0 9.6 0 38.4-28.8 65.6-65.6 65.6-38.4 0-65.6-28.8-65.6-65.6 0-9.6 4.8-19.2 4.8-28.8l-89.6-89.6c-4.8 4.8-14.4 4.8-28.8 4.8-38.4 0-65.6-28.8-65.6-65.6s32-65.6 65.6-65.6zM776 750.4c28.8 0 46.4-19.2 46.4-46.4s-17.6-48-46.4-48c-28.8 0-46.4 19.2-46.4 46.4 0 30.4 19.2 48 46.4 48zM596.8 483.2c28.8 0 46.4-19.2 46.4-46.4 0-28.8-19.2-46.4-46.4-46.4-28.8 0-46.4 19.2-46.4 46.4s19.2 46.4 46.4 46.4zM419.2 572.8c28.8 0 46.4-19.2 46.4-46.4 0-28.8-19.2-46.4-46.4-46.4-28.8 0-46.4 19.2-46.4 46.4-1.6 27.2 22.4 46.4 46.4 46.4zM240 393.6c28.8 0 46.4-19.2 46.4-46.4s-19.2-46.4-46.4-46.4-48 17.6-48 44.8 24 48 48 48zM884.8 180.8h-753.6c-14.4 0-24-9.6-24-24s9.6-24 24-24h753.6c14.4 0 24 9.6 24 24s-9.6 24-24 24z" />
<glyph unicode="&#xe936;" glyph-name="chart-pie" d="M512 48c-220.8 0-400 179.2-400 400s179.2 400 400 400c14.4 0 24-9.6 24-24v-358.4h353.6c14.4 0 24-9.6 24-24-1.6-214.4-180.8-393.6-401.6-393.6zM488 801.6c-182.4-9.6-334.4-164.8-334.4-353.6 0-198.4 160-358.4 358.4-358.4 188.8 0 344 145.6 353.6 334.4h-353.6c-14.4 0-24 9.6-24 24v353.6z" />
<glyph unicode="&#xe937;" glyph-name="chart-polar" d="M851.2 656l-329.6 188.8c-4.8 4.8-14.4 4.8-24 0l-329.6-188.8c0-4.8-4.8-9.6-4.8-19.2v-377.6c0-9.6 4.8-14.4 9.6-19.2l329.6-188.8c4.8 0 9.6-4.8 9.6-4.8 4.8 0 9.6 0 9.6 4.8l329.6 188.8c4.8 4.8 9.6 9.6 9.6 19.2v377.6c0 9.6-4.8 14.4-9.6 19.2zM817.6 273.6l-305.6-179.2-305.6 174.4v353.6l305.6 179.2 305.6-174.4v-353.6zM243.2 448c0-150.4 118.4-268.8 268.8-268.8s268.8 118.4 268.8 268.8c0 14.4-9.6 24-24 24h-70.4v60.8c0 9.6-4.8 19.2-14.4 28.8l-136 75.2v56c0 14.4-9.6 24-24 24-150.4 0-268.8-116.8-268.8-268.8zM512 227.2c-123.2 0-220.8 99.2-220.8 220.8 0 118.4 84.8 208 198.4 220.8v-220.8c0-14.4 9.6-24 24-24h220.8c-14.4-112-104-196.8-222.4-196.8zM625.6 515.2v-43.2h-89.6v94.4l89.6-51.2z" />
<glyph unicode="&#xe938;" glyph-name="chart-radar" d="M851.2 656l-329.6 188.8c-4.8 4.8-14.4 4.8-24 0l-329.6-188.8c0-4.8-4.8-9.6-4.8-19.2v-377.6c0-9.6 4.8-14.4 9.6-19.2l329.6-188.8c4.8 0 9.6-4.8 9.6-4.8 4.8 0 9.6 0 9.6 4.8l329.6 188.8c4.8 4.8 9.6 9.6 9.6 19.2v377.6c0 9.6-4.8 14.4-9.6 19.2zM817.6 273.6l-305.6-179.2-305.6 174.4v353.6l305.6 179.2 305.6-174.4v-353.6zM502.4 716.8l-216-123.2c-9.6-3.2-14.4-12.8-14.4-17.6v-249.6c0-9.6 4.8-14.4 9.6-19.2l216-128c4.8 0 9.6-4.8 9.6-4.8 4.8 0 9.6 0 9.6 4.8l216 128c4.8 4.8 9.6 9.6 9.6 19.2v249.6c0 9.6-4.8 14.4-9.6 19.2l-216 128c0-1.6-9.6-1.6-14.4-6.4zM705.6 561.6v-225.6l-193.6-113.6-193.6 113.6v225.6l193.6 113.6 193.6-113.6zM502.4 590.4l-108.8-62.4c-4.8-4.8-9.6-9.6-9.6-19.2v-123.2c0-9.6 4.8-14.4 9.6-19.2l108.8-60.8c4.8 0 9.6-4.8 9.6-4.8 4.8 0 9.6 0 9.6 4.8l104 60.8c4.8 4.8 9.6 9.6 9.6 19.2v123.2c0 9.6-4.8 14.4-9.6 19.2l-104 60.8c-4.8 6.4-14.4 6.4-19.2 1.6zM596.8 496v-94.4l-84.8-48-84.8 46.4v96l84.8 46.4 84.8-46.4z" />
<glyph unicode="&#xe939;" glyph-name="chat" d="M510.4 822.4c-216 0-398.4-144-398.4-326.4 0-89.6 41.6-168 107.2-224l-75.2-160c-4.8-9.6-4.8-19.2 4.8-28.8s19.2-9.6 28.8-9.6l233.6 97.6c32-4.8 65.6-9.6 102.4-9.6 216 0 398.4 145.6 398.4 328-4.8 188.8-187.2 332.8-401.6 332.8zM510.4 209.6v0c-32 0-65.6 4.8-97.6 9.6-4.8 0-9.6 0-14.4 0l-184-75.2 56 116.8c4.8 9.6 0 24-4.8 28.8-68.8 56-107.2 126.4-107.2 206.4 0 150.4 150.4 280 350.4 280s352-131.2 352-280c0-155.2-150.4-286.4-350.4-286.4z" />
<glyph unicode="&#xe93a;" glyph-name="chat-plus" d="M771.2 433.6v296c0 33.6-28.8 56-56 56h-547.2c-28.8 0-56-28.8-56-56v-385.6c0-33.6 28.8-56 56-56h60.8v-99.2c0-9.6 4.8-14.4 14.4-19.2 4.8 0 4.8 0 9.6 0s9.6 0 14.4 4.8l104 108.8h211.2c0-4.8 0-4.8 0-9.6 0-89.6 75.2-164.8 164.8-164.8s164.8 75.2 164.8 164.8c0 80-60.8 150.4-140.8 160zM366.4 321.6c-4.8 0-9.6 0-14.4-4.8l-84.8-84.8v70.4c0 9.6-9.6 19.2-19.2 19.2h-80c-9.6 0-19.2 9.6-19.2 19.2v388.8c0 9.6 9.6 19.2 19.2 19.2h545.6c9.6 0 19.2-9.6 19.2-19.2v-291.2c-65.6-4.8-121.6-51.2-140.8-113.6h-225.6v-3.2zM747.2 142.4c-70.4 0-131.2 56-131.2 131.2s56 131.2 131.2 131.2 131.2-56 131.2-131.2-56-131.2-131.2-131.2zM803.2 292.8h-33.6v33.6c0 9.6-9.6 19.2-19.2 19.2s-19.2-9.6-19.2-19.2v-33.6h-33.6c-9.6 0-19.2-9.6-19.2-19.2s9.6-19.2 19.2-19.2h33.6v-33.6c0-9.6 9.6-19.2 19.2-19.2s19.2 9.6 19.2 19.2v33.6h33.6c9.6 0 19.2 9.6 19.2 19.2s-9.6 19.2-19.2 19.2z" />
<glyph unicode="&#xe93b;" glyph-name="chats" d="M867.2 462.4c-25.6 25.6-60.8 48-100.8 65.6v4.8c0 148.8-148.8 265.6-326.4 265.6s-328-118.4-328-270.4c0-70.4 35.2-134.4 88-182.4l-60.8-126.4c-4.8-8-4.8-17.6 4.8-25.6 8-4.8 17.6-4.8 25.6-4.8l187.2 78.4c25.6-4.8 52.8-8 83.2-8h4.8c48-65.6 139.2-108.8 230.4-108.8 22.4 0 40 0 56 4.8l126.4-52.8c8-4.8 17.6 0 22.4 4.8s8 17.6 4.8 22.4l-35.2 83.2c17.6 12.8 30.4 30.4 40 52.8 12.8 25.6 22.4 52.8 22.4 78.4v0 0c6.4 44.8-14.4 83.2-44.8 118.4zM347.2 310.4l-144-60.8 43.2 91.2c4.8 8 0 22.4-4.8 25.6-56 43.2-88 100.8-88 161.6 0 121.6 121.6 227.2 283.2 227.2s286.4-105.6 286.4-227.2-121.6-227.2-283.2-227.2v0c-25.6 0-52.8 4.8-78.4 8-4.8 6.4-9.6 6.4-14.4 1.6zM857.6 288c-8-17.6-22.4-35.2-40-48-8-8-12.8-17.6-8-25.6l22.4-52.8-88 35.2c-4.8 0-8 0-12.8 0-17.6-4.8-38.4-4.8-56-4.8v0c-70.4 0-134.4 30.4-179.2 70.4 131.2 22.4 240 104 262.4 214.4 30.4-12.8 56-30.4 73.6-48 25.6-25.6 40-52.8 40-83.2 3.2-17.6-1.6-40-14.4-57.6z" />
<glyph unicode="&#xe93c;" glyph-name="check" d="M892.8 798.4c-20.8 16-51.2 11.2-67.2-9.6l-420.8-555.2-211.2 220.8c-17.6 19.2-48 19.2-67.2 1.6s-19.2-48-1.6-67.2l288-300.8 489.6 643.2c16 20.8 11.2 51.2-9.6 67.2z" />
<glyph unicode="&#xe93d;" glyph-name="check-circle" d="M512 848c-220.8 0-400-179.2-400-400s179.2-400 400-400 400 179.2 400 400-179.2 400-400 400zM512 89.6c-198.4 0-361.6 160-361.6 358.4s163.2 361.6 361.6 361.6 358.4-160 358.4-361.6-160-358.4-358.4-358.4zM804.8 628.8c-1.6 6.4-6.4 14.4-12.8 19.2-12.8 12.8-33.6 12.8-48 0l-316.8-329.6-148.8 152c-12.8 12.8-33.6 12.8-46.4 0-6.4-6.4-9.6-14.4-9.6-24 0-8 3.2-17.6 9.6-24l179.2-179.2c8-8 16-8 25.6-8 8 0 19.2 6.4 25.6 12.8l339.2 356.8c4.8 6.4 6.4 14.4 3.2 24z" />
<glyph unicode="&#xe93e;" glyph-name="check-square" d="M702.4 848h-380.8c-116.8 0-209.6-92.8-209.6-209.6v-380.8c0-116.8 92.8-209.6 209.6-209.6h380.8c116.8 0 209.6 92.8 209.6 209.6v380.8c0 116.8-92.8 209.6-209.6 209.6zM865.6 257.6c0-88-75.2-163.2-163.2-163.2h-380.8c-88 0-163.2 75.2-163.2 163.2v380.8c0 88 75.2 163.2 163.2 163.2h380.8c88 0 163.2-75.2 163.2-163.2v-380.8zM787.2 614.4c-12.8 12.8-33.6 12.8-46.4 0l-315.2-328-145.6 150.4c-12.8 12.8-33.6 12.8-46.4 0s-12.8-33.6 0-46.4l176-176c8-8 16-8 25.6-8 8 0 19.2 6.4 25.6 12.8l334.4 353.6c11.2 8 3.2 28.8-8 41.6v0z" />
<glyph unicode="&#xe93f;" glyph-name="checklist" d="M777.6 736h-105.6v28.8c0 0 0 4.8-4.8 4.8l-9.6 9.6h-52.8c-4.8 19.2-14.4 38.4-33.6 52.8-14.4 14.4-38.4 19.2-57.6 19.2s-43.2-9.6-57.6-19.2c-14.4-14.4-28.8-33.6-28.8-52.8h-59.2c0 0-4.8 0-4.8-4.8l-4.8-4.8v-33.6h-108.8c0 0-4.8 0-4.8-4.8l-4.8-4.8v-667.2c0 0 0-4.8 4.8-4.8l4.8-4.8h532.8c0 0 4.8 0 4.8 4.8l4.8 4.8v662.4c0 0 0 4.8-4.8 4.8l-4.8 4.8c-1.6 4.8-1.6 4.8-4.8 4.8v0zM390.4 745.6h52.8c4.8 0 9.6 0 14.4 4.8s4.8 9.6 4.8 14.4c0 14.4 4.8 28.8 14.4 38.4 9.6 4.8 24 14.4 38.4 14.4s28.8-4.8 38.4-14.4c9.6-9.6 14.4-24 14.4-38.4 0-4.8 0-9.6 4.8-14.4s9.6-4.8 14.4-4.8h52.8v-72h-249.6v72zM763.2 75.2h-496v624h86.4v-48c0 0 0-4.8 4.8-4.8l4.8-4.8c4.8-4.8 9.6-4.8 9.6-4.8h291.2c0 0 4.8 0 4.8 4.8l4.8 4.8v52.8h86.4v-624h3.2zM404.8 416h-72c0 0-4.8 0-4.8-4.8-4.8 0-4.8-4.8-4.8-4.8v-75.2c0 0 0-4.8 4.8-4.8l4.8-4.8h76.8c0 0 4.8 0 4.8 4.8l4.8 4.8v76.8c0 0 0 4.8-4.8 4.8l-4.8 3.2h-4.8zM385.6 355.2h-28.8v28.8h28.8v-28.8zM404.8 252.8h-72c0 0-4.8 0-4.8-4.8-4.8 0-4.8-4.8-4.8-4.8v-76.8c0 0 0-4.8 4.8-4.8l4.8-4.8h76.8c0 0 4.8 0 4.8 4.8l4.8 4.8v81.6l-4.8 4.8c-4.8 0-9.6 0-9.6 0zM385.6 185.6h-28.8v28.8h28.8v-28.8zM476.8 388.8c-4.8 0-9.6 0-14.4-4.8 0-4.8-4.8-9.6-4.8-14.4s0-9.6 4.8-14.4c4.8 0 9.6-4.8 14.4-4.8h200c4.8 0 9.6 0 14.4 4.8s4.8 9.6 4.8 14.4 0 9.6-4.8 14.4-9.6 4.8-14.4 4.8h-200zM676.8 224h-200c-4.8 0-9.6 0-14.4-4.8s-4.8-9.6-4.8-14.4c0-4.8 0-9.6 4.8-14.4s9.6-4.8 14.4-4.8h200c4.8 0 9.6 0 14.4 4.8s4.8 9.6 4.8 14.4c0 4.8 0 9.6-4.8 14.4s-9.6 4.8-14.4 4.8v0zM676.8 550.4h-200c-4.8 0-9.6 0-14.4-4.8s-4.8-9.6-4.8-14.4 0-9.6 4.8-14.4 9.6-4.8 14.4-4.8h200c4.8 0 9.6 0 14.4 4.8s4.8 9.6 4.8 14.4 0 9.6-4.8 14.4-9.6 4.8-14.4 4.8v0zM353.6 496l4.8-4.8h9.6l52.8 52.8c0 4.8 0 4.8 0 9.6v9.6l-9.6 9.6h-11.2l-38.4-38.4-9.6 14.4c-4.8 0-9.6 4.8-14.4 4.8s-9.6-4.8-14.4-9.6c0 0 0-4.8 0-9.6s0-9.6 4.8-14.4l25.6-24z" />
<glyph unicode="&#xe940;" glyph-name="class-live" d="M572.8 691.2h-400c-32 0-60.8-28.8-60.8-60.8v-360c0-32 28.8-60.8 60.8-60.8h400c32 0 60.8 27.2 60.8 60.8v360c-1.6 32-28.8 60.8-60.8 60.8zM592 270.4c0-12.8-8-19.2-19.2-19.2h-400c-12.8 0-19.2 8-19.2 19.2v360c0 12.8 8 19.2 19.2 19.2h400c12.8 0 19.2-8 19.2-19.2v-360zM904 646.4c-8 3.2-11.2 3.2-19.2 3.2l-176-67.2c-20.8-11.2-36.8-35.2-36.8-59.2v-144c0-24 16-48 35.2-56l176-67.2c8-3.2 12.8 0 19.2 4.8 4.8 3.2 8 8 8 16v358.4c1.6 3.2-1.6 8-6.4 11.2zM872 299.2l-147.2 60.8c-8 4.8-12.8 12.8-12.8 19.2v144c0 8 3.2 16 12.8 19.2l147.2 60.8v-304z" />
<glyph unicode="&#xe941;" glyph-name="class-tree" d="M112 196.8c0-60.8 52.8-113.6 113.6-113.6s113.6 52.8 113.6 113.6c0 51.2-41.6 99.2-94.4 108.8v118.4h244.8v-118.4c-56-9.6-94.4-51.2-94.4-108.8 0-60.8 52.8-113.6 113.6-113.6s113.6 52.8 113.6 113.6c0 51.2-41.6 99.2-94.4 108.8v118.4h249.6v-118.4c-56-9.6-94.4-51.2-94.4-108.8 0-60.8 52.8-113.6 113.6-113.6s113.6 52.8 113.6 113.6c0 51.2-41.6 99.2-94.4 108.8v166.4h-288v118.4h96v222.4h-224v-227.2h94.4v-118.4h-288v-161.6c-56-9.6-94.4-51.2-94.4-108.8zM443.2 769.6h147.2v-147.2h-147.2v147.2zM296 196.8c0-38.4-33.6-70.4-70.4-70.4s-70.4 33.6-70.4 70.4c0 38.4 33.6 70.4 70.4 70.4s70.4-27.2 70.4-70.4zM585.6 196.8c0-38.4-33.6-70.4-70.4-70.4s-70.4 33.6-70.4 70.4c0 38.4 33.6 70.4 70.4 70.4s70.4-27.2 70.4-70.4zM803.2 126.4c-38.4 0-70.4 33.6-70.4 70.4 0 38.4 33.6 70.4 70.4 70.4s70.4-33.6 70.4-70.4-27.2-70.4-70.4-70.4z" />
<glyph unicode="&#xe942;" glyph-name="click" d="M908.8 147.2c-4.8 4.8-4.8 14.4-9.6 19.2l-113.6 113.6 104 104c4.8 4.8 9.6 14.4 14.4 19.2 4.8 9.6 4.8 19.2 0 19.2 0 9.6-4.8 19.2-9.6 19.2-4.8 4.8-14.4 14.4-19.2 14.4l-540.8 227.2c-4.8 4.8-14.4 4.8-24 4.8s-19.2-9.6-24-14.4c-4.8-9.6-14.4-19.2-14.4-24 0-9.6 0-19.2 4.8-24l225.6-540.8c0-9.6 4.8-14.4 9.6-19.2s14.4-9.6 19.2-9.6 19.2 0 19.2 0c9.6 4.8 14.4 9.6 19.2 14.4l104 104 113.6-113.6c9.6-9.6 19.2-14.4 33.6-14.4s24 4.8 33.6 14.4l38.4 38.4c4.8 4.8 9.6 9.6 9.6 19.2 4.8 4.8 4.8 14.4 4.8 19.2 6.4-4.8 6.4 4.8 1.6 9.6zM833.6 86.4v0h-9.6l-131.2 131.2c-4.8 4.8-9.6 4.8-19.2 4.8-4.8 0-14.4-4.8-19.2-4.8l-121.6-121.6c0 0 0 0-4.8 0 0 0 0 0-4.8 0 0 0 0 0-4.8 0l-203.2 540.8c0 0 0 0 0 4.8 0 0 0 0 0 4.8s0 0 4.8 0c0 0 0 0 4.8 0l540.8-225.6c0 0 0 0 0-4.8 0 0 0 0 0-4.8 0 0 0 0 0-4.8l-121.6-121.6c-9.6-9.6-9.6-19.2 0-28.8l131.2-131.2-41.6-38.4zM334.4 753.6c0 9.6-9.6 19.2-19.2 19.2-70.4 0-126.4-56-126.4-126.4 0-9.6 9.6-19.2 19.2-19.2s19.2 9.6 19.2 19.2c0 46.4 38.4 89.6 89.6 89.6 8-1.6 17.6 3.2 17.6 17.6zM281.6 809.6c9.6 0 19.2 9.6 19.2 19.2s-4.8 19.2-19.2 19.2c-92.8 0-168-75.2-168-169.6 0-9.6 9.6-19.2 19.2-19.2s19.2 9.6 19.2 19.2c-1.6 70.4 59.2 131.2 129.6 131.2z" />
<glyph unicode="&#xe943;" glyph-name="clock" d="M654.4 377.6l-112 83.2v171.2c0 17.6-14.4 30.4-30.4 30.4s-30.4-14.4-30.4-30.4v-185.6c0-9.6 4.8-19.2 12.8-24l123.2-92.8c4.8-4.8 12.8-6.4 19.2-6.4 9.6 0 19.2 4.8 25.6 12.8 8 11.2 6.4 30.4-8 41.6zM512 848c-220.8 0-400-179.2-400-400s179.2-400 400-400c220.8 0 400 179.2 400 400s-179.2 400-400 400zM512 110.4c-185.6 0-337.6 152-337.6 337.6s152 337.6 337.6 337.6c185.6 0 337.6-152 337.6-337.6s-152-337.6-337.6-337.6z" />
<glyph unicode="&#xe944;" glyph-name="clock-warning" d="M456 617.6c-4.8 0-14.4-9.6-14.4-19.2v-118.4l-28.8 28.8c-4.8 4.8-19.2 4.8-24 0-9.6-4.8-9.6-14.4 0-24l56-56c4.8-4.8 9.6-4.8 9.6-4.8h4.8c4.8 4.8 9.6 9.6 9.6 14.4v160c4.8 9.6-3.2 19.2-12.8 19.2zM691.2 452.8v14.4c0 14.4 4.8 24 4.8 38.4 0 136-113.6 249.6-249.6 249.6s-249.6-108.8-249.6-249.6 113.6-249.6 249.6-249.6c19.2 0 38.4 0 56 4.8l14.4 4.8v14.4c4.8 89.6 70.4 164.8 160 174.4l14.4-1.6zM657.6 486.4c-94.4-19.2-169.6-94.4-179.2-193.6-9.6 0-24-4.8-33.6-4.8-118.4 0-211.2 94.4-211.2 211.2s94.4 211.2 211.2 211.2 211.2-94.4 211.2-211.2c1.6 0 1.6-4.8 1.6-12.8zM780.8 472c0 9.6 0 19.2 0 33.6 0 184-150.4 334.4-334.4 334.4s-334.4-152-334.4-336 150.4-334.4 334.4-334.4c19.2 0 38.4 0 56 4.8 38.4-70.4 108.8-118.4 193.6-118.4 118.4 0 216 99.2 216 216 0 91.2-56 166.4-131.2 200zM696 94.4c-75.2 0-136 46.4-164.8 108.8l-4.8 14.4-14.4-4.8c-19.2-4.8-41.6-4.8-60.8-4.8-164.8 0-297.6 131.2-297.6 296s132.8 297.6 297.6 297.6 296-131.2 296-296c0-14.4 0-28.8-4.8-41.6v-16l14.4-4.8c70.4-24 121.6-89.6 121.6-169.6-4.8-99.2-84.8-179.2-182.4-179.2zM691.2 424c-19.2 0-33.6-14.4-33.6-33.6v-126.4c0-19.2 14.4-33.6 33.6-33.6s33.6 14.4 33.6 33.6v126.4c-1.6 19.2-14.4 33.6-33.6 33.6zM700.8 264c0-4.8-4.8-9.6-9.6-9.6s-9.6 4.8-9.6 9.6v126.4c0 4.8 4.8 9.6 9.6 9.6s9.6-4.8 9.6-9.6v-126.4zM691.2 212.8c-19.2 0-33.6-14.4-33.6-33.6v-14.4c0-19.2 14.4-33.6 33.6-33.6s33.6 14.4 33.6 33.6v14.4c-1.6 19.2-14.4 33.6-33.6 33.6zM700.8 166.4c0-4.8-4.8-9.6-9.6-9.6s-9.6 4.8-9.6 9.6v14.4c0 4.8 4.8 9.6 9.6 9.6s9.6-4.8 9.6-9.6v-14.4z" />
<glyph unicode="&#xe945;" glyph-name="classroom" d="M872 456h-4.8v304h4.8c27.2 0 48 20.8 48 48s-20.8 48-48 48h-720c-27.2 0-48-20.8-48-48s20.8-48 48-48h4.8v-304h-4.8c-27.2 0-48-20.8-48-48s20.8-48 48-48h720c27.2 0 48 20.8 48 48s-20.8 48-48 48zM824 760v-304h-624v304h624zM152 812.8h720c3.2 0 4.8-1.6 4.8-4.8s-1.6-4.8-4.8-4.8h-720c-3.2 0-4.8 1.6-4.8 4.8s1.6 4.8 4.8 4.8zM152 412.8h720c3.2 0 4.8-1.6 4.8-4.8s-1.6-4.8-4.8-4.8h-720c-3.2 0-4.8 1.6-4.8 4.8s1.6 4.8 4.8 4.8zM339.2 534.4c11.2 0 20.8 9.6 20.8 20.8v52.8l24-9.6v-75.2c0-3.2 0-4.8 1.6-8 1.6-1.6 1.6-3.2 3.2-4.8s4.8-3.2 6.4-4.8l65.6-28.8c16-6.4 32-9.6 48-9.6s33.6 3.2 48 9.6l65.6 28.8c3.2 1.6 4.8 3.2 8 6.4 1.6 1.6 1.6 3.2 3.2 6.4s1.6 4.8 1.6 8v73.6l48 20.8c11.2 4.8 19.2 16 19.2 28.8s-3.2 22.4-14.4 27.2l-164.8 70.4c-8 3.2-16 3.2-22.4 0l-164.8-70.4c-11.2-4.8-19.2-16-19.2-28.8v-92.8c0-11.2 9.6-20.8 22.4-20.8zM376 648l136 57.6 136-57.6-136-57.6-136 57.6zM427.2 580.8l73.6-32c8-3.2 16-3.2 22.4 0l73.6 32v-41.6l-52.8-24c-20.8-8-43.2-8-64 0l-52.8 22.4v43.2zM884.8 136h-19.2v9.6c0 33.6-17.6 64-44.8 81.6 17.6 20.8 22.4 49.6 14.4 75.2-11.2 28.8-38.4 49.6-70.4 49.6s-59.2-19.2-70.4-49.6c-9.6-25.6-3.2-54.4 14.4-75.2-27.2-17.6-44.8-48-44.8-81.6v-9.6h-51.2v9.6c0 33.6-17.6 64-44.8 81.6 17.6 20.8 22.4 49.6 14.4 75.2-11.2 28.8-38.4 49.6-70.4 49.6s-59.2-19.2-70.4-49.6c-9.6-25.6-3.2-54.4 14.4-75.2-27.2-17.6-44.8-48-44.8-81.6v-9.6h-51.2v9.6c0 33.6-17.6 64-44.8 81.6 17.6 20.8 22.4 49.6 14.4 75.2-11.2 28.8-38.4 49.6-70.4 49.6-30.4 0-59.2-19.2-70.4-49.6-9.6-25.6-3.2-54.4 14.4-75.2-27.2-17.6-44.8-48-44.8-81.6v-9.6h-19.2c-19.2 0-35.2-16-35.2-35.2v-27.2c0-19.2 16-35.2 35.2-35.2h747.2c19.2 0 35.2 16 35.2 35.2v27.2c-1.6 19.2-17.6 35.2-36.8 35.2zM257.6 200c0 0 1.6 0 1.6 0 32 0 57.6-24 59.2-54.4v-9.6h-116.8v9.6c0 30.4 24 54.4 56 54.4zM259.2 243.2c-17.6 0-32 14.4-32 32s14.4 32 32 32 32-14.4 32-32-14.4-32-32-32zM512 200c30.4 0 57.6-24 59.2-54.4v-9.6h-116.8v9.6c1.6 30.4 27.2 54.4 57.6 54.4zM512 243.2c-17.6 0-32 14.4-32 32s14.4 32 32 32 32-14.4 32-32-14.4-32-32-32zM764.8 200c30.4 0 57.6-24 59.2-54.4v-9.6h-116.8v9.6c1.6 30.4 27.2 54.4 57.6 54.4zM764.8 243.2c-17.6 0-32 14.4-32 32s14.4 32 32 32 32-14.4 32-32-14.4-32-32-32zM876.8 83.2h-729.6v11.2h731.2l-1.6-11.2z" />
<glyph unicode="&#xe946;" glyph-name="code-window" d="M854.4 768h-680c-32 0-60.8-28.8-60.8-60.8v-520c0-32 28.8-60.8 60.8-60.8h680c32 0 60.8 28.8 60.8 60.8v520c-1.6 32-28.8 60.8-60.8 60.8zM873.6 188.8c0-11.2-8-19.2-19.2-19.2h-680c-12.8 0-19.2 8-19.2 19.2v379.2h720v-379.2zM873.6 608h-720v99.2c0 12.8 8 19.2 19.2 19.2h680c12.8 0 19.2-8 19.2-19.2v-99.2zM238.4 291.2c8-8 19.2-8 27.2 0l48 48 43.2-44.8c8-8 19.2-8 28.8 0s8 19.2 0 28.8l-43.2 44.8 44.8 44.8c8 8 8 19.2 0 28.8s-19.2 8-28.8 0l-43.2-44.8-44.8 44.8c-8 8-20.8 8-28.8 0s-8-19.2 0-28.8l44.8-44.8-44.8-44.8c-8-6.4-8-22.4-3.2-32zM438.4 291.2c8-8 19.2-8 28.8 0l44.8 44.8 44.8-44.8c8-8 19.2-8 28.8 0s8 19.2 0 28.8l-40 48 44.8 44.8c8 8 8 19.2 0 28.8-8 8-19.2 8-27.2 0l-44.8-44.8-44.8 44.8c-8 8-19.2 8-28.8 0-8-8-8-19.2 0-28.8l44.8-44.8-44.8-44.8c-11.2-6.4-11.2-22.4-6.4-32zM638.4 291.2c8-8 19.2-8 27.2 0l44.8 44.8 43.2-44.8c8-8 19.2-8 28.8 0 8 8 8 19.2 0 28.8l-40 48 44.8 44.8c8 8 8 19.2 0 28.8-8 8-19.2 8-28.8 0l-43.2-44.8-44.8 44.8c-8 8-19.2 8-28.8 0s-8-19.2 0-28.8l44.8-44.8-44.8-44.8c-8-6.4-8-22.4-3.2-32zM233.6 668.8c0-10.604-8.596-19.2-19.2-19.2s-19.2 8.596-19.2 19.2c0 10.604 8.596 19.2 19.2 19.2s19.2-8.596 19.2-19.2zM313.6 668.8c0-10.604-8.596-19.2-19.2-19.2s-19.2 8.596-19.2 19.2c0 10.604 8.596 19.2 19.2 19.2s19.2-8.596 19.2-19.2zM393.6 668.8c0-10.604-8.596-19.2-19.2-19.2s-19.2 8.596-19.2 19.2c0 10.604 8.596 19.2 19.2 19.2s19.2-8.596 19.2-19.2z" />
<glyph unicode="&#xe947;" glyph-name="cog" d="M512 632c-102.4 0-187.2-81.6-187.2-184s84.8-184 187.2-184c102.4 0 187.2 81.6 187.2 184s-84.8 184-187.2 184zM512 315.2c-75.2 0-137.6 59.2-137.6 132.8s60.8 132.8 137.6 132.8 137.6-59.2 137.6-132.8c0-73.6-62.4-132.8-137.6-132.8zM897.6 360l-75.2 57.6c1.6 9.6 1.6 19.2 1.6 30.4s0 20.8-1.6 30.4l75.2 57.6c14.4 11.2 17.6 30.4 9.6 46.4l-78.4 132.8c-8 14.4-27.2 22.4-44.8 16l-89.6-35.2c-17.6 12.8-35.2 22.4-52.8 30.4l-12.8 92.8c-3.2 16-19.2 28.8-38.4 28.8h-156.8c-19.2 0-33.6-12.8-36.8-30.4l-12.8-92.8c-17.6-8-35.2-17.6-52.8-30.4l-91.2 35.2c-16 6.4-36.8 0-44.8-16l-78.4-132.8c-9.6-16-4.8-35.2 9.6-46.4l75.2-57.6c-1.6-11.2-1.6-20.8-1.6-30.4s0-19.2 1.6-30.4l-75.2-57.6c-14.4-11.2-17.6-30.4-9.6-46.4l78.4-132.8c8-14.4 27.2-22.4 44.8-16l89.6 35.2c17.6-11.2 35.2-22.4 52.8-30.4l12.8-91.2c1.6-17.6 17.6-30.4 36.8-30.4h156.8c19.2 0 33.6 12.8 36.8 30.4l12.8 92.8c17.6 8 35.2 17.6 52.8 30.4l89.6-35.2c4.8-1.6 8-3.2 12.8-3.2 12.8 0 25.6 6.4 32 17.6l78.4 132.8c12.8 17.6 8 36.8-6.4 48zM790.4 216l-102.4 41.6-22.4-14.4c-16-11.2-30.4-19.2-44.8-25.6l-25.6-11.2-16-107.2h-134.4l-16 107.2-25.6 11.2c-16 6.4-30.4 16-44.8 25.6l-22.4 16-104-40-65.6 112 88 67.2-3.2 28.8c-1.6 9.6-1.6 17.6-1.6 25.6 0 6.4 0 14.4 1.6 25.6l3.2 28.8-88 67.2 65.6 112 104-40 22.4 14.4c16 11.2 30.4 19.2 44.8 25.6l25.6 11.2 16 107.2h134.4l16-107.2 25.6-11.2c16-6.4 30.4-14.4 44.8-25.6l22.4-16 104 40 65.6-112-88-67.2 3.2-28.8c1.6-8 1.6-16 1.6-24s0-17.6-1.6-25.6l-3.2-28.8 88-67.2-67.2-115.2z" />
<glyph unicode="&#xe948;" glyph-name="caret-up" d="M828.8 316.8l-296 297.6c-9.6 9.6-25.6 9.6-35.2 0l-297.6-297.6c-9.6-9.6-9.6-24 0-35.2 9.6-9.6 24-9.6 35.2 0l276.8 276.8 276.8-276.8c9.6-9.6 24-9.6 35.2 0 9.6 9.6 9.6 25.6 4.8 35.2z" />
<glyph unicode="&#xe949;" glyph-name="comment" d="M800 848h-576c-62.4 0-110.4-48-110.4-110.4v-398.4c0-62.4 48-110.4 110.4-110.4h44.8c12.8 0 22.4-9.6 22.4-22.4v-132.8c0-9.6 4.8-17.6 12.8-22.4s17.6 0 22.4 4.8l164.8 164.8c9.6 4.8 12.8 9.6 17.6 9.6h291.2c62.4 0 110.4 48 110.4 110.4v396.8c0 62.4-48 110.4-110.4 110.4zM867.2 337.6c0-35.2-30.4-67.2-67.2-67.2h-292.8c-17.6 0-35.2-9.6-48-17.6l-124.8-128v80c0 35.2-30.4 67.2-67.2 67.2h-43.2c-35.2 0-67.2 30.4-67.2 67.2v398.4c0 35.2 30.4 67.2 67.2 67.2h576c35.2 0 67.2-30.4 67.2-67.2v-400zM334.4 537.6c0-24.742-20.058-44.8-44.8-44.8s-44.8 20.058-44.8 44.8c0 24.742 20.058 44.8 44.8 44.8s44.8-20.058 44.8-44.8zM556.8 537.6c0-24.742-20.058-44.8-44.8-44.8s-44.8 20.058-44.8 44.8c0 24.742 20.058 44.8 44.8 44.8s44.8-20.058 44.8-44.8zM779.2 537.6c0-24.742-20.058-44.8-44.8-44.8s-44.8 20.058-44.8 44.8c0 24.742 20.058 44.8 44.8 44.8s44.8-20.058 44.8-44.8z" />
<glyph unicode="&#xe94a;" glyph-name="component" d="M718.4 513.6v216l-206.4 118.4-206.4-118.4v-211.2l-184-108.8v-244.8l206.4-116.8 184 108.8 184-108.8 206.4 118.4v240l-184 107.2zM696 312l-140.8 80 140.8 80 140.8-80-140.8-80zM347.2 678.4l140.8-80v-164.8l-140.8 80v164.8zM536 433.6v160l140.8 80v-164.8l-140.8-75.2zM470.4 396.8l-140.8-80-140.8 80 140.8 80 140.8-80zM347.2 273.6l140.8 80v-164.8l-140.8-80v164.8zM652.8 716.8l-140.8-80-140.8 80 140.8 80 140.8-80zM163.2 358.4l140.8-80v-164.8l-140.8 80v164.8zM536 358.4l140.8-80v-164.8l-140.8 80v164.8zM718.4 113.6v164.8l140.8 80v-164.8l-140.8-80z" />
<glyph unicode="&#xe94b;" glyph-name="config" d="M892.8 748.8h-761.6c-9.6 0-19.2-9.6-19.2-19.2v-564.8c0-14.4 9.6-19.2 19.2-19.2h761.6c14.4 0 19.2 9.6 19.2 19.2v564.8c0 9.6-9.6 19.2-19.2 19.2zM873.6 188.8h-723.2v80h720v-80h3.2zM873.6 307.2h-723.2v400h720v-400h3.2zM243.2 603.2h296c4.8-19.2 19.2-33.6 41.6-33.6 19.2 0 38.4 14.4 41.6 33.6h160c4.8 0 9.6 4.8 9.6 9.6s-4.8 9.6-9.6 9.6h-160c-4.8 19.2-19.2 33.6-41.6 33.6-19.2 0-38.4-14.4-41.6-33.6h-296c-9.6 4.8-14.4 0-14.4-9.6 1.6-9.6 4.8-9.6 14.4-9.6zM582.4 636.8c9.6 0 19.2-9.6 19.2-19.2s-9.6-19.2-19.2-19.2c-9.6 0-19.2 9.6-19.2 19.2v0 0c0 9.6 9.6 19.2 19.2 19.2zM243.2 494.4h113.6c4.8-19.2 19.2-33.6 41.6-33.6s33.6 14.4 38.4 33.6h344c9.6 0 14.4 4.8 14.4 9.6s-4.8 9.6-9.6 9.6h-348.8c-4.8 24-19.2 38.4-38.4 38.4s-38.4-14.4-41.6-33.6h-113.6c-9.6 0-14.4-4.8-14.4-14.4 1.6-9.6 4.8-9.6 14.4-9.6zM398.4 528c9.6 0 19.2-9.6 19.2-24s-9.6-19.2-19.2-19.2c-9.6 0-24 9.6-24 19.2 1.6 9.6 11.2 24 24 24zM243.2 387.2h230.4c0-19.2 19.2-33.6 38.4-33.6s38.4 14.4 41.6 33.6h230.4c4.8 0 9.6 4.8 9.6 9.6s-4.8 9.6-9.6 9.6h-230.4c-4.8 19.2-19.2 33.6-41.6 33.6s-38.4-14.4-41.6-33.6h-227.2c-4.8 0-9.6-4.8-9.6-9.6-3.2-4.8 0-9.6 9.6-9.6zM512 419.2c9.6 0 19.2-9.6 19.2-19.2s-9.6-19.2-19.2-19.2-19.2 9.6-19.2 19.2 9.6 19.2 19.2 19.2z" />
<glyph unicode="&#xe94c;" glyph-name="copy" d="M891.2 680h-147.2v147.2c0 12.8-8 20.8-20.8 20.8h-590.4c-12.8 0-20.8-8-20.8-20.8v-588.8c0-12.8 8-20.8 20.8-20.8h147.2v-147.2c0-12.8 8-20.8 20.8-20.8h588.8c12.8 0 20.8 8 20.8 20.8v588.8c1.6 11.2-6.4 20.8-19.2 20.8zM153.6 259.2v547.2h547.2v-126.4h-400c-12.8 0-20.8-8-20.8-20.8v-400h-126.4zM870.4 89.6h-547.2v547.2h547.2v-547.2z" />
<glyph unicode="&#xe94d;" glyph-name="course" d="M844.8 848h-488c-35.2 0-67.2-30.4-67.2-67.2v-22.4h-110.4c-35.2 0-67.2-30.4-67.2-67.2v-577.6c0-35.2 30.4-67.2 67.2-67.2h489.6c35.2 0 67.2 30.4 67.2 67.2v22.4h110.4c35.2 0 67.2 30.4 67.2 67.2v577.6c-1.6 36.8-32 67.2-68.8 67.2zM689.6 115.2c0-12.8-9.6-22.4-22.4-22.4h-488c-12.8 0-22.4 9.6-22.4 22.4v577.6c0 12.8 9.6 22.4 22.4 22.4h488c12.8 0 22.4-9.6 22.4-22.4v-577.6zM867.2 203.2c0-12.8-9.6-22.4-22.4-22.4h-110.4v512c0 35.2-30.4 67.2-67.2 67.2h-332.8v22.4c0 12.8 9.6 22.4 22.4 22.4h489.6c12.8 0 22.4-9.6 22.4-22.4v-579.2zM622.4 315.2h-400c-12.8 0-22.4-9.6-22.4-22.4s9.6-22.4 22.4-22.4h400c12.8 0 22.4 9.6 22.4 22.4s-8 22.4-22.4 22.4zM622.4 225.6h-400c-12.8 0-22.4-9.6-22.4-22.4s9.6-22.4 22.4-22.4h400c12.8 0 22.4 9.6 22.4 22.4 0 14.4-8 22.4-22.4 22.4zM622.4 492.8h-89.6c-12.8 0-22.4-9.6-22.4-22.4s9.6-22.4 22.4-22.4h89.6c12.8 0 22.4 9.6 22.4 22.4s-8 22.4-22.4 22.4zM622.4 625.6h-89.6c-12.8 0-22.4-9.6-22.4-22.4s9.6-22.4 22.4-22.4h89.6c12.8 0 22.4 9.6 22.4 22.4s-8 22.4-22.4 22.4zM222.4 403.2h222.4c12.8 0 22.4 9.6 22.4 22.4v222.4c0 12.8-9.6 22.4-22.4 22.4h-222.4c-12.8 0-22.4-9.6-22.4-22.4v-222.4c1.6-12.8 9.6-22.4 22.4-22.4zM244.8 625.6h177.6v-177.6h-177.6v177.6z" />
<glyph unicode="&#xe94e;" glyph-name="crm" d="M915.2 771.2c-4.8 9.6-9.6 19.2-19.2 24-9.6 9.6-14.4 14.4-24 19.2s-19.2 4.8-28.8 4.8h-427.2c-9.6 0-14.4-4.8-14.4-14.4s4.8-14.4 14.4-14.4h428.8c24 0 46.4-19.2 46.4-46.4v-358.4h-598.4v400h155.2c9.6 0 14.4 4.8 14.4 14.4s-4.8 19.2-14.4 19.2h-249.6c-9.6 0-19.2 0-28.8-4.8-14.4-4.8-24-9.6-28.8-19.2-9.6-4.8-14.4-14.4-19.2-24s-4.8-19.2-4.8-33.6v-424c0-43.2 33.6-80 80-80h235.2v-56h-24c-43.2 0-80-33.6-80-80v-9.6c0-9.6 4.8-14.4 14.4-14.4h344c9.6 0 14.4 4.8 14.4 14.4v9.6c0 43.2-33.6 80-80 80h-24v56h235.2c43.2 0 80 33.6 80 80v425.6c8 12.8 8 22.4 3.2 32zM152 380.8v273.6h108.8v-273.6h-108.8zM198.4 785.6h60.8v-104h-107.2v56c0 28.8 19.2 48 46.4 48zM590.4 153.6h38.4c24 0 43.2-19.2 46.4-38.4h-310.4c4.8 24 24 38.4 46.4 38.4h38.4c9.6 0 14.4 4.8 14.4 14.4v70.4h108.8v-70.4c3.2-9.6 8-14.4 17.6-14.4zM888 318.4c0-24-19.2-46.4-46.4-46.4h-643.2c-24 0-46.4 19.2-46.4 46.4v33.6h739.2v-33.6h-3.2zM680 512l14.4 84.8 24-84.8c4.8-9.6 14.4-14.4 24-14.4v0c4.8 0 14.4 4.8 14.4 14.4v0l24 84.8 14.4-84.8c9.6-9.6 14.4-14.4 24-14.4s14.4 9.6 14.4 19.2l-28.8 136c0 9.6-9.6 14.4-19.2 14.4s-14.4-4.8-19.2-14.4l-30.4-92.8-28.8 94.4c-4.8 9.6-9.6 14.4-19.2 14.4s-14.4-4.8-19.2-14.4l-24-136c0-9.6 4.8-19.2 14.4-19.2s20.8 3.2 20.8 12.8v0zM345.6 582.4c0-46.4 38.4-84.8 80-84.8 19.2 0 33.6 4.8 46.4 19.2 4.8 0 4.8 4.8 4.8 9.6 9.6 4.8 9.6 14.4 0 19.2-4.8 4.8-14.4 4.8-19.2 0l-4.8-4.8c-9.6-9.6-14.4-9.6-28.8-9.6-28.8 0-51.2 24-51.2 56 0 28.8 24 51.2 51.2 51.2 9.6 0 19.2-4.8 28.8-9.6s19.2-4.8 24 4.8c4.8 4.8 4.8 14.4-4.8 19.2-14.4 9.6-28.8 14.4-46.4 14.4-43.2 0-80-36.8-80-84.8zM619.2 620.8c0 28.8-24 51.2-51.2 51.2h-33.6c-9.6 0-14.4-4.8-14.4-14.4v-140.8c0-9.6 4.8-14.4 14.4-14.4s14.4 4.8 14.4 14.4v28.8l43.2-43.2c4.8-4.8 9.6-4.8 14.4-4.8s9.6 0 9.6 4.8 4.8 14.4 0 24l-43.2 43.2c22.4 0 46.4 22.4 46.4 51.2v0zM566.4 601.6h-19.2v38.4h19.2c9.6 0 19.2-9.6 19.2-19.2 0-14.4-9.6-19.2-19.2-19.2zM203.2 432c9.6 0 14.4 4.8 14.4 14.4s-4.8 14.4-14.4 14.4c-9.6 4.8-14.4 0-14.4-9.6 1.6-9.6 6.4-19.2 14.4-19.2zM203.2 502.4c9.6 0 14.4 4.8 14.4 14.4s-4.8 14.4-14.4 14.4c-9.6 4.8-14.4-4.8-14.4-9.6 1.6-9.6 6.4-19.2 14.4-19.2zM203.2 574.4c9.6 0 14.4 4.8 14.4 14.4s-4.8 14.4-14.4 14.4c-9.6 4.8-14.4-4.8-14.4-9.6 1.6-11.2 6.4-19.2 14.4-19.2z" />
<glyph unicode="&#xe94f;" glyph-name="cross-inner" d="M912 328h-283.2v-283.2h67.2v216h216zM395.2 44.8v283.2h-283.2v-67.2h216v-216zM628.8 844.8v-283.2h283.2v68.8h-216v214.4zM328 844.8v-214.4h-216v-68.8h283.2v283.2z" />
<glyph unicode="&#xe950;" glyph-name="cursor" d="M784 348.8l-227.2-16 96-220.8-150.4-65.6-96 220.8-164.8-156.8v737.6l542.4-499.2zM587.2 139.2l-105.6 240 182.4 11.2-372.8 344v-505.6l131.2 126.4 105.6-240 59.2 24z" />
<glyph unicode="&#xe951;" glyph-name="dashboard" d="M334.4 848h-132.8c-49.6 0-89.6-40-89.6-89.6v-267.2c0-49.6 40-89.6 89.6-89.6h132.8c49.6 0 89.6 40 89.6 89.6v267.2c-1.6 49.6-41.6 89.6-89.6 89.6zM379.2 492.8c0-27.2-17.6-44.8-44.8-44.8h-132.8c-27.2 0-44.8 17.6-44.8 44.8v265.6c0 27.2 17.6 44.8 44.8 44.8h132.8c27.2 0 44.8-17.6 44.8-44.8v-265.6zM822.4 492.8h-132.8c-49.6 0-89.6-40-89.6-89.6v-267.2c0-49.6 40-89.6 89.6-89.6h132.8c49.6 0 89.6 40 89.6 89.6v267.2c0 49.6-40 89.6-89.6 89.6zM867.2 137.6c0-27.2-17.6-44.8-44.8-44.8h-132.8c-27.2 0-44.8 17.6-44.8 44.8v265.6c0 27.2 17.6 44.8 44.8 44.8h132.8c27.2 0 44.8-17.6 44.8-44.8v-265.6zM822.4 848h-132.8c-49.6 0-89.6-40-89.6-89.6v-89.6c0-49.6 40-89.6 89.6-89.6h132.8c49.6 0 89.6 40 89.6 89.6v89.6c0 49.6-40 89.6-89.6 89.6zM867.2 670.4c0-27.2-17.6-44.8-44.8-44.8h-132.8c-27.2 0-44.8 17.6-44.8 44.8v89.6c0 27.2 17.6 44.8 44.8 44.8h132.8c27.2 0 44.8-17.6 44.8-44.8v-89.6zM334.4 315.2h-132.8c-49.6 0-89.6-40-89.6-89.6v-89.6c0-49.6 40-89.6 89.6-89.6h132.8c49.6 0 89.6 40 89.6 89.6v89.6c-1.6 49.6-41.6 89.6-89.6 89.6zM379.2 137.6c0-27.2-17.6-44.8-44.8-44.8h-132.8c-27.2 0-44.8 17.6-44.8 44.8v89.6c0 27.2 17.6 44.8 44.8 44.8h132.8c27.2 0 44.8-17.6 44.8-44.8v-89.6z" />
<glyph unicode="&#xe952;" glyph-name="desktop" d="M892.8 803.2h-761.6c-14.4 0-19.2-9.6-19.2-19.2v-560c0-14.4 9.6-19.2 19.2-19.2h358.4v-80h-99.2c-9.6-4.8-19.2-14.4-19.2-24s9.6-19.2 19.2-19.2h240c14.4 0 19.2 9.6 19.2 19.2s-9.6 19.2-19.2 19.2h-99.2v80h361.6c14.4 0 19.2 9.6 19.2 19.2v560c0 14.4-9.6 24-19.2 24zM870.4 243.2h-720v80h720v-80zM870.4 360h-720v400h720v-400z" />
<glyph unicode="&#xe953;" glyph-name="document" d="M233.6 848c-28.8 0-51.2-24-51.2-51.2v-691.2c0-33.6 24-56 51.2-56h555.2c28.8 0 51.2 24 51.2 51.2v553.6c0 4.8 0 9.6-4.8 14.4l-172.8 174.4c0 4.8-4.8 4.8-14.4 4.8h-414.4zM220.8 796.8c0 4.8 9.6 9.6 14.4 9.6h363.2v-65.6h-292.8c-9.6 0-19.2-9.6-19.2-19.2v-104c0-9.6 9.6-19.2 19.2-19.2h499.2v-499.2c0-9.6-4.8-14.4-14.4-14.4h-556.8c-9.6 0-14.4 4.8-14.4 14.4v697.6h1.6zM803.2 641.6h-169.6v168h9.6l160-160v-8zM323.2 641.6v65.6h273.6v-65.6h-273.6zM305.6 499.2h206.4c9.6 0 19.2 9.6 19.2 19.2s-9.6 19.2-19.2 19.2h-206.4c-9.6-4.8-19.2-9.6-19.2-19.2s9.6-19.2 19.2-19.2zM512 292.8h-206.4c-9.6 0-19.2 9.6-19.2 19.2s9.6 19.2 19.2 19.2h206.4c9.6 0 19.2-9.6 19.2-19.2s-9.6-19.2-19.2-19.2zM286.4 414.4c0-9.6 9.6-19.2 19.2-19.2h414.4c9.6 0 19.2 9.6 19.2 19.2s-9.6 19.2-19.2 19.2h-414.4c-9.6-4.8-19.2-9.6-19.2-19.2zM286.4 208c0 9.6 9.6 19.2 19.2 19.2h414.4c9.6 0 19.2-9.6 19.2-19.2s-9.6-19.2-19.2-19.2h-414.4c-9.6 0-19.2 4.8-19.2 19.2z" />
<glyph unicode="&#xe954;" glyph-name="document-box" d="M908.8 467.2l-104 225.6c-4.8 4.8-9.6 9.6-19.2 14.4h-300.8c-9.6-4.8-19.2-9.6-19.2-19.2 0-14.4 9.6-19.2 19.2-19.2h292.8l84.8-198.4h-108.8c-46.4 0-94.4-28.8-113.6-70.4-14.4-28.8-46.4-46.4-80-46.4h-99.2c-33.6 0-65.6 19.2-80 46.4-19.2 43.2-65.6 70.4-113.6 70.4h-104l104 198.4h292.8c9.6 0 19.2 9.6 19.2 19.2s-9.6 19.2-19.2 19.2h-307.2c-9.6 0-14.4-4.8-19.2-9.6l-116.8-230.4c0-4.8-4.8-4.8-4.8-9.6v-230.4c0-51.2 43.2-89.6 94.4-89.6h608c51.2 0 94.4 38.4 94.4 89.6v230.4c4.8 4.8 4.8 4.8 0 9.6zM875.2 227.2c0-33.6-28.8-51.2-56-51.2h-612.8c-33.6 0-56 19.2-56 51.2v208h118.4c33.6 0 65.6-19.2 80-46.4 19.2-43.2 65.6-70.4 113.6-70.4h108.8c46.4 0 94.4 28.8 113.6 70.4 14.4 28.8 46.4 46.4 80 46.4h115.2v-208h-4.8z" />
<glyph unicode="&#xe955;" glyph-name="document-plus" d="M676.8 520v164.8c0 4.8 0 4.8 0 9.6 0 0 0 0 0 4.8l-4.8 4.8-235.2 188.8h-4.8c0 0 0 0-4.8 0s-4.8 0-9.6 0h-281.6c-14.4 3.2-24-4.8-24-19.2v-753.6c0-14.4 9.6-24 24-24h320c46.4-56 118.4-94.4 198.4-94.4 140.8 0 259.2 118.4 259.2 259.2-1.6 137.6-105.6 244.8-236.8 259.2zM441.6 825.6l145.6-118.4h-145.6v118.4zM158.4 144v705.6h235.2v-164.8c0-14.4 9.6-24 24-24h211.2v-140.8c-131.2-14.4-235.2-121.6-235.2-259.2 0-41.6 9.6-80 28.8-118.4h-264zM652.8 49.6c-118.4 0-211.2 94.4-211.2 211.2s94.4 211.2 211.2 211.2 211.2-94.4 211.2-211.2-92.8-211.2-211.2-211.2zM747.2 284.8h-70.4v70.4c0 14.4-9.6 24-24 24s-24-9.6-24-24v-70.4h-70.4c-14.4 0-24-9.6-24-24s9.6-24 24-24h70.4v-70.4c0-14.4 9.6-24 24-24s24 9.6 24 24v70.4h70.4c14.4 0 24 9.6 24 24s-9.6 24-24 24z" />
<glyph unicode="&#xe956;" glyph-name="download" d="M758.4 657.6c-8 49.6-33.6 96-70.4 129.6-43.2 40-97.6 60.8-153.6 60.8-44.8 0-86.4-12.8-123.2-36.8-30.4-19.2-56-46.4-73.6-78.4-8 1.6-16 1.6-24 1.6-68.8 0-124.8-56-124.8-124.8 0-9.6 1.6-17.6 3.2-25.6-44.8-32-72-84.8-72-140.8 0-44.8 16-88 46.4-123.2 32-35.2 72-56 116.8-59.2 0 0 1.6 0 1.6 0h139.2c12.8 0 22.4 9.6 22.4 22.4s-9.6 22.4-22.4 22.4h-139.2c-65.6 4.8-121.6 67.2-121.6 137.6 0 46.4 24 88 64 112 9.6 4.8 12.8 16 9.6 27.2-3.2 8-4.8 17.6-4.8 27.2 0 44.8 36.8 81.6 81.6 81.6 9.6 0 19.2-1.6 27.2-4.8 11.2-3.2 22.4 1.6 27.2 11.2 30.4 64 96 105.6 166.4 105.6 96 0 174.4-72 184-166.4 1.6-9.6 8-17.6 17.6-19.2 72-12.8 126.4-78.4 126.4-155.2 0-80-64-150.4-140.8-156.8h-120c-12.8 0-22.4-9.6-22.4-22.4s9.6-22.4 22.4-22.4h120c0 0 1.6 0 1.6 0 49.6 3.2 96 25.6 129.6 64 33.6 36.8 52.8 86.4 52.8 136 0 94.4-62.4 174.4-147.2 196.8zM380.8 201.6c-8-8-8-22.4 0-30.4l115.2-115.2c4.8-4.8 9.6-6.4 16-6.4s11.2 1.6 16 6.4l115.2 115.2c8 8 8 22.4 0 30.4-4.8 4.8-9.6 6.4-16 6.4-4.8 0-11.2-1.6-16-6.4l-78.4-78.4v360c0 12.8-9.6 22.4-22.4 22.4s-22.4-9.6-22.4-22.4v-361.6l-78.4 78.4c-6.4 9.6-20.8 9.6-28.8 1.6z" />
<glyph unicode="&#xe957;" glyph-name="draw" d="M700.8 841.6l-368-368c-3.2-3.2-4.8-6.4-6.4-11.2l-36.8-184c-1.6-6.4 0-14.4 6.4-19.2 4.8-4.8 9.6-6.4 14.4-6.4 1.6 0 3.2 0 4.8 0l184 36.8c4.8 1.6 8 3.2 11.2 6.4l368 368c8 8 8 22.4 0 30.4l-147.2 147.2c-8 8-22.4 8-30.4 0zM478.4 329.6l-96-19.2-35.2 35.2 19.2 96 112-112zM827.2 678.4l-324.8-323.2-112 112 324.8 324.8 112-113.6zM694.4 206.4c-203.2 84.8-334.4-56-374.4-76.8-49.6-27.2-121.6-59.2-137.6-3.2-9.6 33.6 43.2 68.8 80 80 25.6 8 14.4 49.6-11.2 41.6-56-17.6-121.6-64-110.4-129.6 8-48 70.4-92.8 187.2-32 86.4 44.8 144 137.6 324.8 89.6 59.2-16 107.2-54.4 128-113.6 9.6-25.6 49.6-14.4 41.6 11.2-24 62.4-67.2 107.2-128 132.8z" />
<glyph unicode="&#xe958;" glyph-name="edit" d="M745.6 446.4c-19.2 0-33.6-14.4-33.6-33.6v-267.2c0-17.6-14.4-33.6-33.6-33.6h-467.2c-19.2 0-33.6 14.4-33.6 33.6v467.2c0 17.6 14.4 33.6 33.6 33.6h267.2c19.2 0 33.6 14.4 33.6 33.6s-14.4 33.6-33.6 33.6h-267.2c-54.4 0-99.2-44.8-99.2-99.2v-467.2c0-54.4 44.8-99.2 99.2-99.2h467.2c54.4 0 99.2 44.8 99.2 99.2v265.6c1.6 19.2-14.4 33.6-32 33.6zM424 476.8c-1.6-1.6-3.2-4.8-4.8-8l-24-118.4c-1.6-4.8 0-11.2 4.8-14.4 3.2-3.2 8-4.8 11.2-4.8 1.6 0 1.6 0 3.2 0l118.4 24c3.2 0 6.4 1.6 8 4.8l264 264-116.8 116.8-264-264zM888 822.4c-32 32-84.8 32-118.4 0l-46.4-46.4 118.4-118.4 46.4 46.4c16 16 24 36.8 24 59.2s-8 43.2-24 59.2z" />
<glyph unicode="&#xe959;" glyph-name="ellipsis-h" d="M912 448c0-44.183-35.817-80-80-80s-80 35.817-80 80c0 44.183 35.817 80 80 80s80-35.817 80-80zM592 448c0-44.183-35.817-80-80-80s-80 35.817-80 80c0 44.183 35.817 80 80 80s80-35.817 80-80zM272 448c0-44.183-35.817-80-80-80s-80 35.817-80 80c0 44.183 35.817 80 80 80s80-35.817 80-80z" />
<glyph unicode="&#xe95a;" glyph-name="ellipsis-v" d="M598.4 768c0-44.183-35.817-80-80-80s-80 35.817-80 80c0 44.183 35.817 80 80 80s80-35.817 80-80zM598.4 448c0-44.183-35.817-80-80-80s-80 35.817-80 80c0 44.183 35.817 80 80 80s80-35.817 80-80zM598.4 128c0-44.183-35.817-80-80-80s-80 35.817-80 80c0 44.183 35.817 80 80 80s80-35.817 80-80z" />
<glyph unicode="&#xe95b;" glyph-name="emotions" d="M436.8 276.8c4.8 0 9.6 4.8 9.6 9.6v24c0 4.8-4.8 9.6-9.6 9.6s-9.6-4.8-9.6-9.6v-24c0-4.8 4.8-9.6 9.6-9.6zM587.2 323.2c-4.8 0-9.6-4.8-9.6-9.6v-24c0-4.8 4.8-9.6 9.6-9.6s9.6 4.8 9.6 9.6v24c0 4.8-4.8 9.6-9.6 9.6zM587.2 243.2h-150.4c-4.8 0-9.6-4.8-9.6-9.6s4.8-9.6 9.6-9.6h145.6c4.8 0 9.6 4.8 9.6 9.6s0 9.6-4.8 9.6zM465.6 596.8c0 99.2-80 179.2-179.2 179.2s-174.4-86.4-174.4-179.2 80-179.2 179.2-179.2c94.4 0 174.4 80 174.4 179.2zM291.2 441.6c-84.8 0-155.2 70.4-155.2 155.2s70.4 155.2 155.2 155.2 155.2-70.4 155.2-155.2c-4.8-84.8-70.4-155.2-155.2-155.2zM732.8 769.6c-99.2 0-179.2-80-179.2-179.2s80-179.2 179.2-179.2 179.2 81.6 179.2 180.8-80 177.6-179.2 177.6zM732.8 441.6c-84.8 0-155.2 70.4-155.2 155.2s70.4 155.2 155.2 155.2 155.2-70.4 155.2-155.2-70.4-155.2-155.2-155.2zM512 454.4c-99.2 0-179.2-80-179.2-179.2s80-179.2 179.2-179.2 179.2 80 179.2 179.2-80 179.2-179.2 179.2zM512 126.4c-84.8 0-155.2 70.4-155.2 155.2s70.4 155.2 155.2 155.2 155.2-70.4 155.2-155.2c0-89.6-70.4-155.2-155.2-155.2zM225.6 606.4v17.6c0 4.8-4.8 9.6-9.6 9.6-9.6 4.8-14.4 0-14.4-9.6v-24c0-4.8 4.8-9.6 9.6-9.6 9.6 1.6 14.4 6.4 14.4 16zM361.6 638.4c-4.8 0-9.6-4.8-9.6-14.4v-24c0-4.8 4.8-9.6 9.6-9.6s9.6 4.8 9.6 9.6v24c4.8 9.6 0 14.4-9.6 14.4zM337.6 553.6c-9.6-19.2-28.8-28.8-46.4-28.8-19.2 0-38.4 9.6-51.2 28.8-4.8 4.8-14.4 4.8-19.2 0s-4.8-9.6 0-14.4c14.4-24 41.6-38.4 70.4-38.4v0c28.8 0 51.2 14.4 70.4 38.4 4.8 4.8 0 14.4-4.8 14.4-4.8 4.8-14.4 4.8-19.2 0zM672 606.4v17.6c0 4.8-4.8 9.6-9.6 9.6s-9.6-4.8-9.6-9.6v-24c0-4.8 4.8-9.6 9.6-9.6s9.6 6.4 9.6 16zM808 638.4c-4.8 0-9.6-4.8-9.6-9.6v-24c0-4.8 4.8-9.6 9.6-9.6s9.6 4.8 9.6 9.6v19.2c4.8 9.6-4.8 14.4-9.6 14.4zM732.8 568c-28.8 0-51.2-14.4-70.4-38.4-4.8-4.8 0-14.4 4.8-14.4h4.8c4.8 0 9.6 0 9.6 4.8 9.6 19.2 28.8 28.8 51.2 28.8 19.2 0 38.4-9.6 51.2-28.8 4.8-4.8 9.6-4.8 14.4-4.8 4.8 4.8 4.8 9.6 4.8 14.4-12.8 24-41.6 38.4-70.4 38.4z" />
<glyph unicode="&#xe95c;" glyph-name="envelope" d="M841.6 742.4h-659.2c-36.8 0-70.4-33.6-70.4-70.4v-470.4c0-38.4 33.6-70.4 70.4-70.4h659.2c38.4 0 70.4 33.6 70.4 70.4v470.4c0 36.8-33.6 70.4-70.4 70.4zM832 694.4l-320-320-320 320h640zM158.4 209.6v452.8l225.6-225.6-225.6-227.2zM192 177.6l225.6 225.6 80-80c9.6-9.6 24-9.6 33.6 0l75.2 75.2 225.6-225.6h-640v4.8zM865.6 209.6l-227.2 227.2 225.6 225.6v-452.8z" />
<glyph unicode="&#xe95d;" glyph-name="eraser" d="M144 324.8l134.4-134.4c8-8 19.2-8 27.2 0s8 19.2 0 27.2l-137.6 137.6v6.4c0 0 0 3.2 3.2 3.2l102.4 102.4 206.4-201.6c8-8 19.2-8 27.2 0s8 19.2 0 27.2l-204.8 206.4 198.4 198.4 59.2-40 158.4-158.4c8-8 19.2-8 27.2 0s8 19.2 0 27.2l-222.4 222.4c-8 8-19.2 8-27.2 0l-27.2-24-324.8-324.8c-3.2-3.2-8-11.2-11.2-16-4.8-8-4.8-12.8-4.8-20.8s0-11.2 3.2-19.2c0-11.2 4.8-16 12.8-19.2zM345.6 158.4h-214.4c-11.2 0-19.2-8-19.2-19.2s8-19.2 19.2-19.2h214.4c11.2 0 19.2 8 19.2 19.2s-8 19.2-19.2 19.2zM627.2 158.4h-67.2c-11.2 0-19.2-8-19.2-19.2s8-19.2 19.2-19.2h67.2c11.2 0 19.2 8 19.2 19.2s-8 19.2-19.2 19.2zM496 158.4h-67.2c-11.2 0-19.2-8-19.2-19.2s8-19.2 19.2-19.2h67.2c11.2 0 19.2 8 19.2 19.2s-6.4 19.2-19.2 19.2zM756.8 158.4h-67.2c-11.2 0-19.2-8-19.2-19.2s8-19.2 19.2-19.2h67.2c11.2 0 19.2 8 19.2 19.2 4.8 11.2-6.4 19.2-19.2 19.2zM892.8 158.4h-67.2c-11.2 0-19.2-8-19.2-19.2s8-19.2 19.2-19.2h67.2c11.2 0 19.2 8 19.2 19.2s-8 19.2-19.2 19.2z" />
<glyph unicode="&#xe95e;" glyph-name="exam" d="M795.2 139.2h-379.2c-9.6 0-14.4-4.8-14.4-14.4s4.8-14.4 14.4-14.4h379.2c9.6 0 14.4 4.8 14.4 14.4s-4.8 14.4-14.4 14.4zM224 771.2c0 4.8-4.8 4.8-9.6 4.8v0c-4.8 0-9.6 0-9.6-4.8v0l-32-70.4c0-4.8 0-9.6 4.8-9.6 0 0 0 0 4.8 0s9.6 0 9.6 4.8l4.8 14.4h36.8l4.8-14.4c0-4.8 4.8-4.8 9.6-4.8s9.6 4.8 4.8 9.6l-28.8 70.4zM201.6 724.8l14.4 28.8 14.4-28.8h-28.8zM467.2 560c0 14.4-4.8 28.8-14.4 32 4.8 4.8 4.8 14.4 4.8 19.2 0 19.2-14.4 36.8-32 36.8h-28.8c-4.8 0-9.6-4.8-9.6-9.6v-102.4c0-4.8 0-4.8 4.8-9.6 0 0 4.8-4.8 9.6-4.8v0c0 0 28.8 0 32 0 19.2 1.6 33.6 19.2 33.6 38.4zM406.4 625.6h19.2c4.8 0 14.4-4.8 14.4-14.4s-4.8-14.4-14.4-14.4c0 0-4.8 0-9.6 0h-9.6v28.8zM406.4 579.2c4.8 0 4.8 0 9.6 0h14.4c9.6 0 19.2-9.6 19.2-19.2s-9.6-14.4-19.2-14.4c-4.8 0-14.4 0-24 0v33.6zM766.4 438.4h-340.8c-4.8 0-14.4-4.8-14.4-14.4 0-4.8 4.8-14.4 14.4-14.4h340.8c4.8 0 14.4 4.8 14.4 14.4-4.8 9.6-9.6 14.4-14.4 14.4zM766.4 345.6h-340.8c-4.8 0-14.4-4.8-14.4-14.4 0-4.8 4.8-14.4 14.4-14.4h340.8c4.8 0 14.4 4.8 14.4 14.4-4.8 9.6-9.6 14.4-14.4 14.4zM766.4 251.2h-340.8c-4.8 0-14.4-4.8-14.4-14.4 0-4.8 4.8-14.4 14.4-14.4h340.8c4.8 0 14.4 4.8 14.4 14.4-4.8 9.6-9.6 14.4-14.4 14.4zM912 494.4c0 4.8 0 4.8-4.8 9.6l-196.8 224c0 0-4.8 4.8-9.6 4.8v0c0 0 0 0-4.8 0h-70.4l-89.6 102.4c0 0-4.8 4.8-9.6 4.8v0c0 0 0 0-4.8 0h-324.8c-48 1.6-84.8-36.8-84.8-83.2v-515.2c0-46.4 36.8-84.8 84.8-84.8h84.8v-24c0-46.4 36.8-80 84.8-80h454.4c46.4 0 84.8 36.8 84.8 80l6.4 361.6c0-4.8 0 0 0 0zM860.8 508.8h-97.6c-24 0-46.4 19.2-46.4 46.4v121.6l51.2-60.8 92.8-107.2zM284.8 654.4v-459.2h-84.8c-28.8 0-51.2 24-51.2 51.2v515.2c0 28.8 24 51.2 51.2 51.2h313.6v-75.2h32v46.4l41.6-46.4h-212.8c-46.4-4.8-89.6-41.6-89.6-83.2zM827.2 88h-452.8c-28.8 0-51.2 24-51.2 51.2v515.2c0 28.8 24 51.2 51.2 51.2h308.8v-150.4c0-41.6 32-80 80-80h116.8v-340.8c0-24-24-46.4-52.8-46.4z" />
<glyph unicode="&#xe95f;" glyph-name="exercise" d="M889.6 246.4c-12.8 0-22.4-9.6-22.4-22.4v-67.2c0-35.2-30.4-67.2-67.2-67.2h-577.6c-35.2 0-67.2 30.4-67.2 67.2v579.2c0 35.2 30.4 67.2 67.2 67.2h377.6c12.8 0 22.4 9.6 22.4 22.4s-9.6 22.4-22.4 22.4h-377.6c-60.8-1.6-110.4-51.2-110.4-112v-577.6c0-62.4 49.6-110.4 110.4-110.4h577.6c62.4 0 110.4 49.6 110.4 110.4v65.6c1.6 12.8-8 22.4-20.8 22.4zM556.8 556.8c0 12.8-9.6 22.4-22.4 22.4h-312c-12.8 0-22.4-9.6-22.4-22.4s9.6-22.4 22.4-22.4h310.4c14.4 1.6 24 9.6 24 22.4zM467.2 424c0 12.8-9.6 22.4-22.4 22.4h-222.4c-12.8 0-22.4-9.6-22.4-22.4s9.6-22.4 22.4-22.4h222.4c14.4 0 22.4 9.6 22.4 22.4zM222.4 313.6c-12.8 0-22.4-9.6-22.4-22.4s9.6-22.4 22.4-22.4h177.6c12.8 0 22.4 9.6 22.4 22.4s-9.6 22.4-22.4 22.4h-177.6zM547.2 396.8l-35.2-123.2c0-9.6 0-17.6 4.8-22.4s12.8-9.6 22.4-4.8l124.8 35.2c4.8 0 9.6 4.8 9.6 4.8l212.8 212.8c17.6 17.6 27.2 40 27.2 62.4s-9.6 44.8-27.2 57.6c-17.6 17.6-35.2 27.2-57.6 27.2s-44.8-9.6-57.6-22.4l-214.4-212.8c-4.8-4.8-9.6-9.6-9.6-14.4zM587.2 379.2l209.6 209.6c9.6 9.6 17.6 12.8 27.2 12.8s22.4-4.8 27.2-12.8c12.8-4.8 17.6-17.6 17.6-27.2s-4.8-22.4-12.8-27.2l-211.2-212.8-80-22.4 22.4 80z" />
<glyph unicode="&#xe960;" glyph-name="exit" d="M889.6 476.8l-156.8 156.8c-3.2 3.2-8 6.4-12.8 9.6-4.8 1.6-11.2 3.2-16 3.2s-11.2-1.6-16-3.2c-4.8-1.6-9.6-4.8-12.8-9.6-8-8-12.8-17.6-12.8-28.8s4.8-20.8 12.8-28.8l84.8-84.8h-451.2c-11.2 0-20.8-4.8-28.8-12.8s-12.8-17.6-12.8-28.8c0-11.2 4.8-20.8 12.8-28.8s17.6-12.8 28.8-12.8h451.2l-84.8-84.8c-8-8-12.8-17.6-12.8-28.8s4.8-20.8 12.8-28.8c8-8 17.6-12.8 28.8-12.8s20.8 4.8 28.8 12.8l156.8 156.8c8 8 12.8 17.6 12.8 28.8 0 8-4.8 17.6-12.8 25.6zM604.8 212.8c-11.2 0-20.8-4.8-28.8-12.8s-12.8-17.6-12.8-28.8v-41.6h-358.4v635.2h358.4v-41.6c0-11.2 4.8-20.8 12.8-28.8s17.6-12.8 28.8-12.8c11.2 0 20.8 4.8 28.8 12.8s12.8 17.6 12.8 28.8v54.4c0 9.6-1.6 17.6-4.8 25.6s-8 16-14.4 22.4c-6.4 6.4-14.4 11.2-22.4 14.4-9.6 6.4-17.6 8-27.2 8h-385.6c-17.6 0-35.2-8-48-20.8s-20.8-30.4-20.8-48v-662.4c0-17.6 8-35.2 20.8-48s30.4-20.8 48-20.8h385.6c9.6 0 17.6 1.6 25.6 4.8s16 8 22.4 14.4c6.4 6.4 11.2 14.4 14.4 22.4s4.8 17.6 4.8 25.6v54.4c0 11.2-4.8 20.8-12.8 28.8-4.8 11.2-16 14.4-27.2 14.4z" />
<glyph unicode="&#xe961;" glyph-name="eye" d="M908.8 452.8l-19.2-9.6 19.2-9.6c4.8 4.8 4.8 14.4 0 19.2zM115.2 433.6l19.2 9.6-19.2 9.6c-4.8-4.8-4.8-14.4 0-19.2zM908.8 452.8v0 0 0c0 4.8 0 4.8 0 0-4.8 4.8-4.8 9.6-4.8 9.6-4.8 4.8-9.6 19.2-19.2 28.8-14.4 24-43.2 51.2-70.4 84.8-65.6 65.6-164.8 128-302.4 128s-235.2-60.8-302.4-123.2c-33.6-33.6-56-60.8-70.4-84.8-9.6-14.4-14.4-24-19.2-28.8 0-4.8-4.8-4.8-4.8-9.6v0 0 0 0 0c0 0 0 0 19.2-9.6-19.2-9.6-19.2-9.6-19.2-9.6v0 0 0 0 0c0 0 4.8-4.8 4.8-9.6 4.8-4.8 9.6-19.2 19.2-28.8 14.4-24 43.2-51.2 70.4-84.8 65.6-60.8 164.8-123.2 302.4-123.2s235.2 60.8 302.4 123.2c33.6 33.6 56 60.8 70.4 84.8 9.6 9.6 14.4 24 19.2 28.8 0 4.8 4.8 4.8 4.8 9.6v0 0 0 0 0c0 0 0 0-19.2 9.6 19.2 4.8 19.2 4.8 19.2 4.8v0zM846.4 419.2c-14.4-19.2-38.4-46.4-65.6-75.2-60.8-56-145.6-113.6-268.8-113.6-118.4 0-208 56-268.8 113.6-28.8 28.8-51.2 56-65.6 75.2-4.8 9.6-9.6 19.2-14.4 24 4.8 4.8 9.6 14.4 14.4 24 14.4 19.2 38.4 46.4 65.6 75.2 60.8 56 150.4 113.6 268.8 113.6s208-56 268.8-113.6c28.8-28.8 51.2-56 65.6-75.2 4.8-9.6 9.6-19.2 14.4-24-4.8-4.8-9.6-14.4-14.4-24zM512 608c-89.6 0-164.8-75.2-164.8-164.8s75.2-164.8 164.8-164.8 164.8 75.2 164.8 164.8-75.2 164.8-164.8 164.8zM512 324.8c-65.6 0-118.4 51.2-118.4 118.4s51.2 118.4 118.4 118.4 118.4-51.2 118.4-118.4-52.8-118.4-118.4-118.4z" />
<glyph unicode="&#xe962;" glyph-name="eye-dropper" d="M156.8 52.8c9.6 0 19.2 4.8 28.8 9.6l36.8 36.8c4.8 4.8 9.6 9.6 14.4 9.6l60.8 19.2c9.6 4.8 19.2 9.6 28.8 14.4l323.2 323.2c9.6-9.6 19.2-9.6 28.8-9.6 14.4 0 28.8 9.6 33.6 19.2 9.6 14.4 9.6 28.8 0 36.8 60.8 14.4 131.2 51.2 164.8 84.8 51.2 51.2 51.2 145.6-9.6 201.6-59.2 56-147.2 60.8-204.8 9.6-33.6-33.6-70.4-99.2-84.8-164.8-14.4 9.6-33.6 4.8-46.4-9.6-14.4-14.4-14.4-41.6 0-56v0l-320-315.2c-9.6-9.6-14.4-14.4-14.4-28.8l-19.2-60.8c0-4.8-4.8-9.6-9.6-14.4l-46.4-36.8c-9.6-9.6-14.4-28.8-9.6-41.6 11.2-19.2 25.6-27.2 44.8-27.2zM681.6 793.6c43.2 43.2 118.4 38.4 164.8-9.6s51.2-121.6 9.6-164.8c-28.8-28.8-104-70.4-164.8-80l-89.6 89.6c14.4 62.4 52.8 137.6 80 164.8zM555.2 625.6c4.8 4.8 14.4 4.8 19.2 0l112-112c4.8-4.8 4.8-4.8 4.8-9.6s0-4.8-4.8-9.6-14.4-4.8-19.2 0l-112 112c-4.8 4.8-4.8 4.8-4.8 9.6s0 4.8 4.8 9.6v0zM142.4 104l41.6 36.8c9.6 9.6 14.4 14.4 14.4 28.8l19.2 60.8c0 4.8 4.8 9.6 9.6 14.4l323.2 323.2 75.2-75.2-320-323.2c-4.8-4.8-9.6-9.6-14.4-9.6l-60.8-19.2c-9.6-4.8-19.2-9.6-28.8-14.4l-36.8-36.8c-4.8-4.8-14.4-4.8-19.2 0s-4.8 4.8-4.8 9.6c1.6 4.8 1.6 0 1.6 4.8z" />
<glyph unicode="&#xe963;" glyph-name="file-lms" d="M849.6 787.2h-675.2c-36.8 0-62.4-32-62.4-62.4v-449.6c0-35.2 25.6-62.4 62.4-62.4h249.6l-9.6-68.8h-60.8c-17.6 0-30.4-12.8-30.4-25.6 0-9.6 3.2-17.6 9.6-22.4 3.2-3.2 8-3.2 12.8-3.2 3.2 0 4.8 0 8 1.6h313.6c17.6 0 30.4 12.8 30.4 25.6s-9.6 24-28.8 24h-60.8l-12.8 70.4h254.4c36.8 0 62.4 32 62.4 62.4v448c0 35.2-25.6 62.4-62.4 62.4zM849.6 240h-675.2c-19.2 0-35.2 16-35.2 35.2v35.2h745.6v-35.2c0-19.2-16-35.2-35.2-35.2zM884.8 337.6h-745.6v387.2c0 19.2 16 35.2 35.2 35.2h675.2c19.2 0 35.2-16 35.2-35.2v-387.2zM566.4 212.8l11.2-70.4h-142.4l11.2 70.4h120zM668.8 115.2h-313.6c-1.6 0-3.2 1.6-3.2 3.2s1.6 3.2 3.2 3.2h315.2c1.6 0 3.2-1.6 3.2-3.2-1.6-1.6-3.2-3.2-4.8-3.2zM345.6 603.2h-30.4v-140.8h89.6v25.6h-59.2zM502.4 508.8h-1.6l-38.4 94.4h-36.8v-140.8h28.8v92.8l36.8-91.2h19.2l36.8 89.6h1.6v-91.2h28.8v140.8h-36.8zM696 529.6c-3.2 3.2-8 6.4-12.8 8s-11.2 4.8-17.6 4.8l-12.8 3.2c-3.2 0-6.4 1.6-8 3.2-3.2 1.6-4.8 1.6-6.4 3.2s-3.2 3.2-4.8 4.8c-1.6 1.6-1.6 4.8-1.6 6.4 0 3.2 1.6 6.4 3.2 8s4.8 4.8 8 4.8c3.2 1.6 8 1.6 12.8 1.6 6.4 0 12.8-1.6 17.6-4.8s6.4-8 6.4-12.8h28.8c0 8-1.6 16-6.4 22.4s-11.2 11.2-17.6 14.4c-8 3.2-17.6 4.8-27.2 4.8s-19.2-1.6-27.2-4.8c-8-3.2-14.4-8-19.2-14.4s-6.4-14.4-6.4-22.4c0-9.6 3.2-19.2 9.6-24 6.4-6.4 16-11.2 28.8-12.8l16-3.2c4.8-1.6 9.6-3.2 12.8-4.8s6.4-3.2 8-4.8c1.6-1.6 3.2-4.8 3.2-8s-1.6-6.4-3.2-9.6c-1.6-3.2-4.8-4.8-8-6.4s-8-1.6-12.8-1.6c-4.8 0-9.6 0-14.4 1.6s-8 3.2-9.6 6.4c-3.2 3.2-3.2 6.4-4.8 11.2h-28.8c0-9.6 3.2-19.2 8-25.6s11.2-11.2 19.2-16c8-3.2 17.6-4.8 28.8-4.8s20.8 1.6 28.8 4.8c8 3.2 14.4 8 19.2 14.4s6.4 14.4 6.4 22.4c0 6.4-1.6 11.2-3.2 16-6.4 8-8 11.2-12.8 14.4z" />
<glyph unicode="&#xe964;" glyph-name="fill" d="M822.4 312c0 0-89.6-96-89.6-155.2 0-49.6 40-89.6 89.6-89.6s89.6 40 89.6 89.6c0 59.2-89.6 155.2-89.6 155.2zM316.8 822.4l-30.4-30.4 105.6-105.6-260.8-260.8c-25.6-25.6-25.6-68.8 0-94.4l244.8-244.8c12.8-12.8 30.4-19.2 46.4-19.2 17.6 0 33.6 6.4 46.4 19.2l244.8 244.8c25.6 25.6 25.6 68.8 0 94.4l-396.8 396.8zM672 337.6l-206.4-206.4c-20.8-20.8-52.8-20.8-72 0l-216 214.4c-1.6 1.6-3.2 4.8-6.4 6.4h508.8c0-4.8-3.2-9.6-8-14.4zM164.8 395.2c1.6 8 6.4 16 12.8 22.4l206.4 206.4c20.8 20.8 52.8 20.8 72 0l216-212.8c4.8-4.8 8-9.6 11.2-16h-518.4z" />
<glyph unicode="&#xe965;" glyph-name="filter" d="M880 747.2h-475.2c-12.8 38.4-49.6 67.2-92.8 67.2s-80-28.8-92.8-67.2h-75.2c-17.6 0-32-14.4-32-32s14.4-32 32-32h73.6c12.8-38.4 49.6-67.2 92.8-67.2s80 28.8 92.8 67.2h476.8c17.6 0 32 14.4 32 32s-14.4 32-32 32zM310.4 680c-19.2 0-35.2 16-35.2 35.2s16 35.2 35.2 35.2c19.2 0 35.2-16 35.2-35.2 1.6-19.2-14.4-35.2-35.2-35.2zM880 480h-73.6c-12.8 38.4-49.6 67.2-92.8 67.2s-80-28.8-92.8-67.2h-476.8c-17.6 0-32-14.4-32-32s14.4-32 32-32h476.8c12.8-38.4 49.6-67.2 92.8-67.2s80 28.8 92.8 67.2h73.6c17.6 0 32 14.4 32 32s-14.4 32-32 32zM713.6 412.8c-19.2 0-35.2 16-35.2 35.2s16 35.2 35.2 35.2c19.2 0 35.2-16 35.2-35.2s-16-35.2-35.2-35.2zM880 211.2h-342.4c-12.8 38.4-49.6 67.2-92.8 67.2s-80-28.8-92.8-67.2h-208c-17.6 0-32-14.4-32-32s14.4-32 32-32h208c12.8-38.4 49.6-67.2 92.8-67.2s80 28.8 92.8 67.2h342.4c17.6 0 32 14.4 32 32s-14.4 32-32 32zM444.8 144c-19.2 0-35.2 16-35.2 35.2s16 35.2 35.2 35.2c19.2 0 35.2-16 35.2-35.2s-16-35.2-35.2-35.2z" />
<glyph unicode="&#xe966;" glyph-name="firework" d="M230.4 713.6c9.6-9.6 24-14.4 33.6-4.8 9.6 4.8 14.4 19.2 4.8 28.8l-46.4 70.4c-4.8 14.4-19.2 14.4-28.8 9.6-14.4-9.6-14.4-24-9.6-33.6l46.4-70.4zM334.4 713.6l46.4 70.4c9.6 9.6 4.8 24-4.8 33.6-9.6 4.8-24 4.8-33.6-4.8l-46.4-70.4c-9.6-14.4-4.8-28.8 4.8-33.6 14.4-9.6 28.8-4.8 33.6 4.8zM905.6 771.2c-4.8 4.8-14.4 9.6-24 4.8l-320-80c-9.6 0-14.4-9.6-19.2-19.2 0-9.6 0-19.2 9.6-24l9.6-4.8-297.6-329.6c-9.6-9.6-9.6-24 0-33.6l51.2-46.4c-19.2-14.4-43.2-19.2-60.8-19.2-24 4.8-46.4 19.2-65.6 43.2s-28.8 51.2-24 80c4.8 28.8 19.2 56 56 84.8 70.4 46.4 104 99.2 113.6 140.8 14.4 43.2 0 80-14.4 104-9.6 9.6-24 9.6-38.4 4.8-9.6-9.6-9.6-24-4.8-33.6 9.6-9.6 14.4-33.6 9.6-60.8-9.6-33.6-33.6-75.2-99.2-118.4-46.4-33.6-70.4-75.2-75.2-118.4s9.6-80 33.6-113.6c24-28.8 56-51.2 94.4-60.8 38.4-4.8 75.2 4.8 108.8 33.6l132.8-123.2c9.6-9.6 24-9.6 33.6 0l297.6 329.6 9.6-4.8c14.4-4.8 24-4.8 28.8-4.8 9.6 4.8 14.4 9.6 14.4 19.2l46.4 324.8c3.2 11.2-1.6 20.8-6.4 25.6zM499.2 134.4l-188.8 169.6 283.2 312 188.8-169.6-283.2-312zM825.6 473.6l-208 188.8 240 60.8-32-249.6zM155.2 638.4h84.8c14.4 0 24 9.6 24 24s-9.6 24-24 24h-84.8c-14.4 0-24-9.6-24-24s14.4-24 24-24z" />
</font>
</defs>
</svg>
